<?xml version="1.0" encoding="iso-8859-1"?>
<!-- Generator: Adobe Illustrator 19.0.0, SVG Export Plug-In . SVG Version: 6.00 Build 0)  -->
<svg xmlns="http://www.w3.org/2000/svg" xmlns:xlink="http://www.w3.org/1999/xlink" version="1.1" id="Capa_1" x="0px" y="0px" viewBox="0 0 423.253 423.253" style="enable-background:new 0 0 423.253 423.253;" xml:space="preserve" width="512px" height="512px">
<g>
	<g>
		<path d="M302.302,0H118.521c-3.768,0-6.827,3.058-6.827,6.827v119.736c0,54.432,44.285,98.717,98.717,98.717    s98.714-44.285,98.717-98.717V6.827C309.129,3.058,306.07,0,302.302,0z M295.475,126.563c0,46.903-38.158,85.064-85.064,85.064    s-85.064-38.161-85.064-85.064V13.653h170.127V126.563z" fill="#2d3039"/>
	</g>
</g>
<g>
	<g>
		<path d="M377.173,34.133h-71.178c-3.768,0-6.827,3.058-6.827,6.827c0,3.768,3.058,6.827,6.827,6.827h64.348v31.174    c0,41.847-31.529,77.705-73.342,83.405c-3.734,0.509-6.349,3.949-5.84,7.687c0.468,3.42,3.396,5.902,6.755,5.902    c0.311,0,0.621-0.021,0.935-0.065C347.392,169.274,384,127.601,384,78.961V40.96C384,37.192,380.942,34.133,377.173,34.133z" fill="#2d3039"/>
	</g>
</g>
<g>
	<g>
		<path d="M126.249,162.365c-41.813-5.7-73.342-41.557-73.342-83.405V47.787h64.348c3.768,0,6.827-3.058,6.827-6.827    c0-3.768-3.058-6.827-6.827-6.827H46.08c-3.768,0-6.827,3.058-6.827,6.827v38.001c0,48.64,36.608,90.313,85.152,96.928    c0.311,0.044,0.621,0.065,0.932,0.065c3.359,0,6.287-2.485,6.752-5.902C132.598,166.315,129.983,162.874,126.249,162.365z" fill="#2d3039"/>
	</g>
</g>
<g>
	<g>
		<path d="M227.427,211.627h-34.034c-3.768,0-6.827,3.058-6.827,6.827v122.88c0,3.768,3.058,6.827,6.827,6.827h34.034    c3.768,0,6.827-3.058,6.827-6.827v-122.88C234.254,214.685,231.195,211.627,227.427,211.627z M220.6,334.507h-20.381V225.28H220.6    V334.507z" fill="#2d3039"/>
	</g>
</g>
<g>
	<g>
		<path d="M254.655,334.507h-88.487c-3.768,0-6.827,3.058-6.827,6.827v27.307c0,3.768,3.058,6.827,6.827,6.827h88.484    c3.772,0,6.827-3.058,6.83-6.827v-27.307C261.482,337.565,258.423,334.507,254.655,334.507z M247.828,361.813h-74.834V348.16    h74.834V361.813z" fill="#2d3039"/>
	</g>
</g>
<g>
	<g>
		<path d="M213.811,0h-68.065c-3.768,0-6.827,3.058-6.827,6.827V122.88c0,2.628,1.509,5.021,3.874,6.158    c2.365,1.137,5.175,0.812,7.226-0.833l29.761-23.876l29.761,23.876c1.236,0.993,2.751,1.502,4.273,1.502    c1.004,0,2.01-0.218,2.949-0.669c2.369-1.137,3.874-3.529,3.874-6.158V6.827C220.638,3.058,217.579,0,213.811,0z M206.988,108.65    l-22.934-18.401c-1.249-1.004-2.761-1.502-4.273-1.502c-1.512,0-3.024,0.498-4.273,1.502l-22.934,18.401V13.653h54.415V108.65z" fill="#2d3039"/>
	</g>
</g>
<g>
	<g>
		<path d="M295.492,361.813H125.327c-3.768,0-6.827,3.058-6.827,6.827v47.787c0,3.768,3.058,6.827,6.827,6.827h170.165    c3.772,0,6.827-3.058,6.827-6.827V368.64C302.319,364.872,299.261,361.813,295.492,361.813z M288.666,409.6H132.154v-34.133    h156.512V409.6z" fill="#2d3039"/>
	</g>
</g>
<g>
</g>
<g>
</g>
<g>
</g>
<g>
</g>
<g>
</g>
<g>
</g>
<g>
</g>
<g>
</g>
<g>
</g>
<g>
</g>
<g>
</g>
<g>
</g>
<g>
</g>
<g>
</g>
<g>
</g>
</svg>
