<?xml version="1.0" encoding="iso-8859-1"?>
<!-- Generator: Adobe Illustrator 19.0.0, SVG Export Plug-In . SVG Version: 6.00 Build 0)  -->
<svg version="1.1" id="Capa_1" xmlns="http://www.w3.org/2000/svg" xmlns:xlink="http://www.w3.org/1999/xlink" x="0px" y="0px"
	 viewBox="0 0 430.418 430.418" style="enable-background:new 0 0 430.418 430.418;" xml:space="preserve">
<ellipse style="fill:#FFFFFF;" cx="104.925" cy="402.772" rx="68.267" ry="20.48"/>
<path style="fill:#602F75;" d="M104.92,430.08c-36.166,0-75.093-8.547-75.093-27.307c0-18.76,38.927-27.307,75.093-27.307
	s75.093,8.547,75.093,27.307C180.013,421.533,141.086,430.08,104.92,430.08z M104.92,389.12c-39.933,0-60.407,9.967-61.454,13.757
	c1.046,3.584,21.519,13.549,61.454,13.549s60.407-9.967,61.454-13.757C165.325,399.087,144.852,389.12,104.92,389.12z"/>
<path style="fill:#602F75;" d="M104.92,409.6c-3.773,0-6.827-3.057-6.827-6.827v-163.84c0-3.77,3.053-6.827,6.827-6.827
	s6.827,3.057,6.827,6.827v163.84C111.746,406.543,108.693,409.6,104.92,409.6z"/>
<path style="fill:#602F75;" d="M29.826,143.36c-3.773,0-6.827-3.057-6.827-6.827V81.92c0-3.77,3.053-6.827,6.827-6.827
	s6.827,3.057,6.827,6.827v54.613C36.653,140.303,33.6,143.36,29.826,143.36z"/>
<path style="fill:#602F75;" d="M180.013,175.985c-3.773,0-6.827-3.057-6.827-6.827V81.92c0-3.77,3.053-6.827,6.827-6.827
	s6.827,3.057,6.827,6.827v87.236C186.84,172.928,183.786,175.985,180.013,175.985z"/>
<path style="fill:#FFE600;" d="M180.013,162.331v56.19c0,37.666-30.573,68.2-68.282,68.2H98.108
	c-37.711,0-68.282-30.554-68.282-68.297v-40.929"/>
<path style="fill:#602F75;" d="M111.733,293.547H98.107c-41.414,0-75.107-33.7-75.107-75.124v-40.929
	c0-3.77,3.053-6.827,6.827-6.827s6.827,3.057,6.827,6.827v40.929c0,33.893,27.566,61.471,61.454,61.471h13.626
	c33.886,0,61.454-27.534,61.454-61.373v-56.19c0-3.77,3.053-6.827,6.827-6.827s6.827,3.057,6.827,6.827v56.19
	C186.84,259.891,153.147,293.547,111.733,293.547z"/>
<ellipse style="fill:#00E7FF;" cx="104.925" cy="81.92" rx="75.093" ry="27.307"/>
<path style="fill:#602F75;" d="M104.92,116.053C64.212,116.053,23,104.33,23,81.92s41.213-34.133,81.92-34.133
	s81.92,11.723,81.92,34.133S145.625,116.053,104.92,116.053z M104.92,61.44c-41.04,0-68.267,12.327-68.267,20.48
	s27.226,20.48,68.267,20.48s68.267-12.327,68.267-20.48S145.96,61.44,104.92,61.44z"/>
<ellipse style="fill:#FFE600;" cx="104.925" cy="170.665" rx="75.093" ry="27.307"/>
<path style="fill:#602F75;" d="M104.92,204.8C64.212,204.8,23,193.077,23,170.667s41.213-34.133,81.92-34.133
	s81.92,11.723,81.92,34.133S145.625,204.8,104.92,204.8z M104.92,150.187c-41.04,0-68.267,12.327-68.267,20.48
	s27.226,20.48,68.267,20.48s68.267-12.327,68.267-20.48S145.96,150.187,104.92,150.187z"/>
<ellipse transform="matrix(-0.1418 -0.9899 0.9899 -0.1418 -16.8791 787.5818)" style="fill:#FFFFFF;" cx="332.962" cy="401.108" rx="20.48" ry="68.267"/>
<path style="fill:#602F75;" d="M306.479,430.418c-7.34,0-14.193-0.454-20.273-1.37c-17.033-2.56-26.32-8.373-27.593-17.283
	c-1.273-8.907,6.001-17.094,21.634-24.33c12.8-5.931,30.14-10.67,48.833-13.343c35.801-5.123,75.534-2.19,78.206,16.381
	c2.654,18.577-34.666,32.553-70.467,37.676l0,0C326.286,429.657,315.973,430.418,306.479,430.418z M359.22,385.461
	c-8.054,0-17.466,0.606-28.206,2.144c-39.533,5.659-58.387,18.43-58.88,22.327c1.553,3.407,23.214,10.366,62.754,4.704l0,0
	c39.533-5.659,58.387-18.434,58.88-22.33C392.647,389.83,380.833,385.461,359.22,385.461z"/>
<path style="fill:#602F75;" d="M332.939,407.945c-3.347,0-6.267-2.454-6.753-5.861L302.96,239.901
	c-0.532-3.731,2.06-7.19,5.794-7.723c3.739-0.546,7.194,2.057,7.726,5.791l23.226,162.183c0.532,3.731-2.06,7.19-5.794,7.723
	C333.586,407.921,333.26,407.945,332.939,407.945z"/>
<path style="fill:#602F75;" d="M225.412,186.827c-3.347,0-6.267-2.454-6.753-5.861l-12.293-85.847
	c-0.532-3.731,2.06-7.19,5.794-7.723c3.739-0.56,7.194,2.057,7.726,5.791l12.293,85.847c0.532,3.731-2.06,7.19-5.794,7.723
	C226.059,186.803,225.733,186.827,225.412,186.827z"/>
<path style="fill:#602F75;" d="M374.153,166.043c-3.347,0-6.267-2.454-6.753-5.861l-12.367-86.357
	c-0.532-3.731,2.06-7.19,5.794-7.723c3.727-0.543,7.194,2.057,7.726,5.791l12.367,86.357c0.532,3.731-2.06,7.19-5.794,7.723
	C374.8,166.021,374.472,166.043,374.153,166.043z"/>
<path style="fill:#EA3457;" d="M373.194,152.458l7.967,55.622c5.34,37.286-20.596,71.846-57.923,77.191l-13.486,1.932
	c-37.33,5.347-71.924-20.564-77.274-57.926l-8.025-56.032"/>
<path style="fill:#602F75;" d="M299.906,294.735c-16.126,0-31.747-5.173-44.88-15.014c-16.053-12.034-26.46-29.604-29.307-49.476
	l-8.026-56.03c-0.532-3.731,2.06-7.19,5.794-7.723c3.721-0.553,7.187,2.057,7.726,5.791l8.026,56.03
	c2.326,16.263,10.841,30.64,23.974,40.484c13.14,9.841,29.307,13.983,45.573,11.653l13.486-1.934
	c16.247-2.326,30.619-10.834,40.467-23.956c9.847-13.121,13.986-29.283,11.66-45.51l-7.967-55.624
	c-0.532-3.731,2.06-7.19,5.794-7.723c3.746-0.543,7.194,2.057,7.726,5.791l7.967,55.624c2.84,19.84-2.227,39.6-14.259,55.637
	c-12.032,16.038-29.594,26.436-49.454,29.276l-13.486,1.934C307.107,294.48,303.492,294.735,299.906,294.735z"/>
<ellipse transform="matrix(-0.1418 -0.9899 0.9899 -0.1418 245.5671 379.8842)" style="fill:#00E7FF;" cx="287.456" cy="83.494" rx="27.307" ry="75.094"/>
<path style="fill:#602F75;" d="M263.807,119.397c-10.047,0-19.413-0.857-27.573-2.567c-22.799-4.777-28.827-14.444-29.867-21.711
	c-1.039-7.267,2.033-18.234,22.574-29.22c13.993-7.48,33.053-13.227,53.68-16.179c40.293-5.777,82.753-0.007,85.934,22.17
	c1.039,7.267-2.033,18.237-22.574,29.22c-13.993,7.484-33.053,13.23-53.68,16.183l0,0
	C282.512,118.697,272.886,119.397,263.807,119.397z M291.332,110.537h0.067H291.332z M310.826,61.29
	c-7.98,0-16.8,0.587-26.274,1.944c-19.087,2.737-36.553,7.956-49.172,14.706c-11.346,6.067-15.961,12.027-15.493,15.244
	c0.461,3.22,6.554,7.646,19.147,10.283c14.013,2.937,32.247,3.04,51.333,0.314l0,0c19.087-2.734,36.553-7.956,49.172-14.71
	c11.346-6.064,15.961-12.023,15.493-15.241C354.146,67.64,337.066,61.29,310.826,61.29z"/>
<ellipse transform="matrix(-0.1418 -0.9899 0.9899 -0.1418 172.9749 492.6768)" style="fill:#EA3457;" cx="300.053" cy="171.357" rx="27.307" ry="75.094"/>
<path style="fill:#602F75;" d="M276.279,207.241c-29.693,0-54.907-7.369-57.334-24.267c-1.039-7.27,2.033-18.237,22.574-29.223
	c13.993-7.48,33.053-13.227,53.68-16.179c20.606-2.951,40.527-2.79,56.067,0.463c22.799,4.777,28.827,14.444,29.867,21.711
	c1.039,7.267-2.033,18.234-22.574,29.22c-13.993,7.48-33.053,13.227-53.68,16.179C295.286,206.52,285.56,207.241,276.279,207.241z
	 M323.733,149.111c-8.421,0-17.406,0.657-26.6,1.973c-19.087,2.737-36.553,7.956-49.172,14.706
	c-11.346,6.067-15.961,12.027-15.493,15.244c1.154,8.071,29.86,16.41,70.48,10.597c19.087-2.738,36.553-7.956,49.172-14.706
	c11.346-6.067,15.961-12.027,15.493-15.244c-0.461-3.22-6.554-7.646-19.147-10.283C341.199,149.874,332.799,149.111,323.733,149.111
	z"/>
<g>
	<path style="fill:#00E7FF;" d="M200.493,47.787c-3.773,0-6.827-3.057-6.827-6.827V6.827c0-3.77,3.053-6.827,6.827-6.827
		s6.827,3.057,6.827,6.827V40.96C207.32,44.73,204.266,47.787,200.493,47.787z"/>
	<path style="fill:#00E7FF;" d="M180.006,47.787c-1.427,0-2.86-0.444-4.087-1.367l-27.307-20.48c-3.021-2.26-3.633-6.54-1.367-9.557
		c2.26-3.007,6.54-3.627,9.554-1.364l27.307,20.48c3.021,2.26,3.633,6.54,1.367,9.557C184.133,46.845,182.087,47.787,180.006,47.787
		z"/>
	<path style="fill:#00E7FF;" d="M220.98,47.787c-2.08,0-4.127-0.944-5.466-2.731c-2.266-3.017-1.654-7.296,1.367-9.557l27.307-20.48
		c3.007-2.27,7.293-1.647,9.554,1.364c2.266,3.017,1.654,7.296-1.367,9.557l-27.307,20.48
		C223.84,47.345,222.407,47.787,220.98,47.787z"/>
</g>
<g>
</g>
<g>
</g>
<g>
</g>
<g>
</g>
<g>
</g>
<g>
</g>
<g>
</g>
<g>
</g>
<g>
</g>
<g>
</g>
<g>
</g>
<g>
</g>
<g>
</g>
<g>
</g>
<g>
</g>
</svg>
