<?xml version="1.0" encoding="iso-8859-1"?>
<!-- Generator: Adobe Illustrator 19.0.0, SVG Export Plug-In . SVG Version: 6.00 Build 0)  -->
<svg version="1.1" id="Capa_1" xmlns="http://www.w3.org/2000/svg" xmlns:xlink="http://www.w3.org/1999/xlink" x="0px" y="0px"
	 viewBox="0 0 423.253 423.253" style="enable-background:new 0 0 423.253 423.253;" xml:space="preserve">
<path style="fill:#FBAD4A;" d="M210.408,218.453L210.408,218.453c-50.749,0-91.89-41.141-91.89-91.89V6.827h183.781v119.736
	C302.298,177.312,261.158,218.453,210.408,218.453z"/>
<path d="M210.412,225.28c-54.432,0-98.717-44.285-98.717-98.717V6.827c0-3.768,3.058-6.827,6.827-6.827h183.781
	c3.768,0,6.827,3.058,6.827,6.827v119.736C309.125,180.995,264.844,225.28,210.412,225.28z M125.348,13.653v112.91
	c0,46.903,38.158,85.064,85.064,85.064s85.064-38.161,85.064-85.064V13.653H125.348z"/>
<path d="M297.916,175.954c-3.359,0-6.287-2.481-6.755-5.902c-0.509-3.738,2.106-7.178,5.84-7.687
	c41.813-5.7,73.342-41.557,73.342-83.405V47.787h-64.348c-3.768,0-6.827-3.058-6.827-6.827c0-3.768,3.058-6.827,6.827-6.827h71.178
	c3.768,0,6.827,3.058,6.827,6.827v38.001c0,48.64-36.608,90.313-85.149,96.928C298.537,175.933,298.226,175.954,297.916,175.954z"/>
<path d="M125.338,175.954c-0.311,0-0.621-0.02-0.932-0.065c-48.544-6.615-85.152-48.288-85.152-96.928V40.96
	c0-3.768,3.058-6.827,6.827-6.827h71.175c3.768,0,6.827,3.058,6.827,6.827c0,3.768-3.058,6.827-6.827,6.827H52.907v31.174
	c0,41.847,31.529,77.705,73.342,83.405c3.734,0.509,6.349,3.949,5.84,7.687C131.625,173.469,128.696,175.954,125.338,175.954z"/>
<rect x="193.399" y="218.453" style="fill:#FEDA4F;" width="34.034" height="122.88"/>
<path d="M227.427,348.16h-34.034c-3.768,0-6.827-3.058-6.827-6.827v-122.88c0-3.768,3.058-6.827,6.827-6.827h34.034
	c3.768,0,6.827,3.058,6.827,6.827v122.88C234.254,345.102,231.195,348.16,227.427,348.16z M200.219,334.507H220.6V225.28h-20.381
	V334.507z"/>
<rect x="166.164" y="341.333" style="fill:#FEDA4F;" width="88.487" height="27.307"/>
<path d="M254.652,375.467h-88.484c-3.768,0-6.827-3.058-6.827-6.827v-27.307c0-3.768,3.058-6.827,6.827-6.827h88.487
	c3.768,0,6.827,3.058,6.827,6.827v27.307C261.478,372.408,258.423,375.467,254.652,375.467z M172.995,361.813h74.834V348.16h-74.834
	V361.813z"/>
<polygon style="fill:#ED5481;" points="213.811,122.88 179.78,95.573 145.746,122.88 145.746,6.827 213.811,6.827 "/>
<path d="M213.815,129.707c-1.522,0-3.038-0.509-4.273-1.502l-29.761-23.876l-29.761,23.876c-2.051,1.645-4.861,1.969-7.226,0.833
	c-2.365-1.137-3.874-3.529-3.874-6.158V6.827c0-3.768,3.058-6.827,6.827-6.827h68.065c3.768,0,6.827,3.058,6.827,6.827V122.88
	c0,2.628-1.505,5.021-3.874,6.158C215.825,129.488,214.818,129.707,213.815,129.707z M179.78,88.747
	c1.512,0,3.024,0.498,4.273,1.502l22.934,18.401V13.653h-54.415v94.996l22.934-18.401C176.756,89.245,178.268,88.747,179.78,88.747z
	"/>
<rect x="125.324" y="368.64" style="fill:#FBAD4A;" width="170.168" height="47.787"/>
<path d="M295.492,423.253H125.327c-3.768,0-6.827-3.058-6.827-6.827V368.64c0-3.768,3.058-6.827,6.827-6.827h170.165
	c3.768,0,6.827,3.058,6.827,6.827v47.787C302.319,420.195,299.264,423.253,295.492,423.253z M132.154,409.6h156.512v-34.133H132.154
	V409.6z"/>
<g>
</g>
<g>
</g>
<g>
</g>
<g>
</g>
<g>
</g>
<g>
</g>
<g>
</g>
<g>
</g>
<g>
</g>
<g>
</g>
<g>
</g>
<g>
</g>
<g>
</g>
<g>
</g>
<g>
</g>
</svg>
