<svg width="50" height="50" viewBox="0 0 50 50" fill="none" xmlns="http://www.w3.org/2000/svg">
<path d="M20.0754 10.3627H1.61289V7.05941C1.61289 4.67942 3.871 2.74364 6.64639 2.74314C6.69033 2.74314 6.73428 2.73981 6.77783 2.73234L13.0924 1.65612C13.5315 1.58115 13.8291 1.15238 13.7565 0.698177C13.684 0.24438 13.2698 -0.0656184 12.8295 0.0118813L6.57832 1.0773C2.94473 1.10979 0 3.78101 0 7.05941V11.196C0 11.656 0.361328 12.0294 0.806445 12.0294H20.0754C20.521 12.0294 20.8818 11.656 20.8818 11.196C20.8818 10.736 20.5206 10.3627 20.0754 10.3627Z" transform="translate(0 22.9705)" fill="#2D3039"/>
<path d="M7.30244 -2.46365e-07H0.806446C0.361328 -2.46365e-07 -1.01328e-07 0.37337 -1.01328e-07 0.833322V4.99994C-1.01328e-07 5.32951 0.1875 5.62781 0.479004 5.76121C1.71611 6.32954 3.07412 6.61956 4.43867 6.61956C5.14111 6.61956 5.84551 6.54287 6.53584 6.38747C6.9709 6.28999 7.24717 5.84618 7.15234 5.39622C7.05801 4.94666 6.63018 4.66118 6.19307 4.75917C4.66445 5.10246 3.05762 4.98793 1.61279 4.43918V1.66665H7.30234C7.74746 1.66665 8.10879 1.29327 8.10879 0.833322C8.10879 0.37337 7.74756 -2.46365e-07 7.30244 -2.46365e-07Z" transform="translate(11.2903 18.3332)" fill="#2D3039"/>
<path d="M8.871 3.77246e-08H8.06455C3.61777 3.77246e-08 -3.51667e-07 3.73835 -3.51667e-07 8.33333V15.7224C-3.51667e-07 18.0811 1.85684 20 4.13955 20H11.4335C11.8786 20 12.2399 19.6266 12.2399 19.1666C12.2399 18.7067 11.8786 18.3333 11.4335 18.3333H4.13955C2.74639 18.3333 1.61299 17.162 1.61299 15.7225V8.33333C1.61299 4.65755 4.50732 1.66665 8.06465 1.66665H8.87109C12.4283 1.66665 15.3228 4.65745 15.3228 8.33333V15.7224C15.3228 16.1824 15.6841 16.5558 16.1292 16.5558C16.5743 16.5558 16.9356 16.1824 16.9356 15.7224V8.33333C16.9355 3.73835 13.3178 3.77246e-08 8.871 3.77246e-08Z" transform="translate(7.2583)" fill="#2D3039"/>
<path d="M14.4964 1.0555L8.37217 0.0117803C7.92822 -0.0653157 7.51777 0.24428 7.44512 0.697976C7.37256 1.15258 7.67012 1.58085 8.10967 1.65592L14.2976 2.71054C14.3407 2.71761 14.3847 2.72134 14.4286 2.72134C17.204 2.72134 19.4621 4.65712 19.4621 7.0371V10.3404H0.806447C0.361329 10.3404 -1.35899e-06 10.7138 -1.35899e-06 11.1738C-1.35899e-06 11.6337 0.361329 12.0071 0.806447 12.0071H20.2686C20.7137 12.0071 21.075 11.6337 21.075 11.1738V7.0371C21.075 3.75881 18.1303 1.08759 14.4964 1.0555Z" transform="translate(28.925 22.9927)" fill="#2D3039"/>
<path d="M6.82656 -2.46365e-07H0.806445C0.361328 -2.46365e-07 5.96046e-07 0.37337 5.96046e-07 0.833322C5.96046e-07 1.29327 0.361328 1.66665 0.806445 1.66665H6.02012V4.43918C4.8415 4.88833 3.55928 5.04747 2.28301 4.90125C1.84346 4.85291 1.44189 5.18037 1.39228 5.6379C1.34346 6.09543 1.6624 6.50705 2.10518 6.5579C2.47207 6.59998 2.83867 6.62077 3.204 6.62077C4.56973 6.62037 5.91768 6.32914 7.154 5.76162C7.44512 5.62791 7.63301 5.32951 7.63301 4.99994V0.833322C7.63301 0.37337 7.27168 -2.46365e-07 6.82656 -2.46365e-07Z" transform="translate(31.0767 18.3332)" fill="#2D3039"/>
<path d="M8.871 3.77246e-08H8.06455C3.61777 3.77246e-08 -6.4373e-07 3.73835 -6.4373e-07 8.33333V15.7224C-6.4373e-07 16.1824 0.361327 16.5558 0.806444 16.5558C1.25156 16.5558 1.61289 16.1824 1.61289 15.7224V8.33333C1.61289 4.65755 4.50723 1.66665 8.06455 1.66665H8.871C12.4282 1.66665 15.3227 4.65745 15.3227 8.33333V15.7224C15.3227 17.162 14.1892 18.3332 12.7961 18.3332H6.32305C5.87793 18.3332 5.5166 18.7066 5.5166 19.1665C5.5166 19.6265 5.87793 19.9999 6.32305 19.9999H12.7956C15.0782 19.9999 16.9352 18.0811 16.9355 15.7223V8.33333C16.9355 3.73835 13.3178 3.77246e-08 8.871 3.77246e-08Z" transform="translate(25.8069)" fill="#2D3039"/>
<path d="M24.5158 1.01762L18.9486 0.0543274C18.5111 -0.0194383 18.1069 0.287229 18.0349 0.741024C17.9634 1.19522 18.2567 1.62389 18.6899 1.69897L24.3196 2.67276C24.3621 2.67982 24.4054 2.68356 24.4487 2.68356C27.1842 2.68356 29.4099 4.61933 29.4099 6.99931V10.3022H1.58962V6.9985C1.58962 4.61852 3.81528 2.68275 6.55079 2.68275C6.5941 2.68275 6.63741 2.67942 6.67996 2.67195L12.5611 1.65528C12.9943 1.5803 13.2876 1.15153 13.2161 0.697332C13.145 0.243536 12.7341 -0.0618223 12.3029 0.0106317L6.4837 1.01692C2.90241 1.04941 -2.52617e-07 3.72062 -2.52617e-07 6.99901V11.1356C-2.52617e-07 11.5956 0.356136 11.969 0.794857 11.969H30.2048C30.6435 11.969 30.9996 11.5956 31 11.1356V6.99981C31 3.72132 28.0979 1.05011 24.5158 1.01762Z" transform="translate(10 38.031)" fill="#2D3039"/>
<path d="M7.94867 -6.40547e-07H0.794857C0.356136 -6.40547e-07 -3.52489e-08 0.373369 -3.52489e-08 0.83332V4.99993C-3.52489e-08 5.3291 0.184806 5.62779 0.472121 5.7616C1.69299 6.32993 3.03235 6.6145 4.37171 6.6145C5.71107 6.6145 7.05043 6.32993 8.27131 5.7616C8.55824 5.62789 8.74343 5.3291 8.74343 4.99993V0.83332C8.74352 0.373268 8.38748 -6.40547e-07 7.94867 -6.40547e-07ZM7.15381 4.43866C5.37929 5.12071 3.36433 5.12071 1.58981 4.43866V1.66664H7.15381V4.43866Z" transform="translate(21.1277 33.3333)" fill="#2D3039"/>
<path d="M8.74352 -1.23182e-08H7.94867C3.56579 -1.23182e-08 3.99487e-07 3.73834 3.99487e-07 8.33331V15.7224C3.99487e-07 18.0811 1.83015 19.9999 4.08007 19.9999H12.6117C14.8616 19.9999 16.6918 18.0816 16.6922 15.7224V8.33331C16.6922 3.73834 13.1264 -1.23182e-08 8.74352 -1.23182e-08ZM15.1025 15.7224C15.1021 17.162 13.9849 18.3332 12.6117 18.3332H4.08007C2.70692 18.3332 1.58971 17.1619 1.58971 15.7224V8.33331C1.58971 4.65754 4.44246 1.66664 7.94867 1.66664H8.74352C12.2496 1.66664 15.1025 4.65743 15.1025 8.33331V15.7224Z" transform="translate(17.1536 15)" fill="#2D3039"/>
</svg>
