<svg width="50" height="50" viewBox="0 0 50 50" fill="none" xmlns="http://www.w3.org/2000/svg">
<path d="M29.8387 10.8334H3.65078e-08V6.6967C3.65078e-08 3.85291 2.61455 1.54748 5.83993 1.54748L14.9193 6.15916e-08L23.9987 1.54748C27.2241 1.54748 29.8386 3.85291 29.8386 6.6967V10.8334H29.8387Z" transform="translate(0.806396 23.3333)" fill="#777777"/>
<path d="M30.6452 12.5001H0.806444C0.361132 12.5001 0 12.1269 0 11.6668V7.5302C0 4.25189 2.94472 1.58065 6.57841 1.54796L15.5944 0.0112766C15.6814 -0.00375922 15.77 -0.00375922 15.857 0.0112766L24.873 1.54796C28.5067 1.58076 31.4514 4.25189 31.4514 7.5302V11.6668C31.4516 12.127 31.0905 12.5001 30.6452 12.5001ZM1.61289 10.8334H29.8386V7.5302C29.8386 5.1502 27.5807 3.21421 24.8052 3.21421C24.7613 3.21421 24.7173 3.21048 24.6739 3.20321L15.7258 1.67793L6.77762 3.20321C6.73407 3.21048 6.69022 3.21421 6.64628 3.21421C3.8707 3.21421 1.61289 5.1502 1.61289 7.5302V10.8334Z" transform="translate(0 22.4999)" fill="black"/>
<path d="M7.25799 5.8333C4.97333 6.88248 2.28457 6.88248 2.14576e-07 5.8333V8.62282e-08H7.25799V5.8333Z" transform="translate(12.0967 17.5)" fill="#EAC583"/>
<path d="M4.43544 8.28131C3.07656 8.28131 1.71767 7.99694 0.479003 7.42811C0.187597 7.2945 -1.01328e-07 6.9959 -1.01328e-07 6.66663V0.833328C-1.01328e-07 0.37307 0.361132 -2.9564e-07 0.806444 -2.9564e-07H8.06444C8.50975 -2.9564e-07 8.87088 0.373171 8.87088 0.833328V6.66663C8.87088 6.996 8.68319 7.2945 8.39188 7.42811C7.15331 7.99694 5.79442 8.28131 4.43544 8.28131ZM1.61289 6.10546C3.41327 6.78742 5.4577 6.78742 7.25799 6.10546V1.66656H1.61289C1.61289 1.66645 1.61289 6.10546 1.61289 6.10546Z" transform="translate(11.2903 16.6668)" fill="black"/>
<path d="M11.9894 18.3333H3.333C1.49228 18.3333 1.2517e-07 16.7913 1.2517e-07 14.8892V7.49995C1.2517e-07 3.35794 3.2496 -3.54152e-08 7.25799 -3.54152e-08H8.06444C12.0728 -3.54152e-08 15.3224 3.35794 15.3224 7.49995V14.8892C15.3225 16.7912 13.8302 18.3333 11.9894 18.3333Z" transform="translate(8.06445 0.833313)" fill="#FFDD95"/>
<path d="M12.7959 20H4.13954C1.85703 20 -1.90735e-07 18.081 -1.90735e-07 15.7224V8.33328C-1.90735e-07 3.73827 3.61786 2.30968e-08 8.06444 2.30968e-08H8.87088C13.3177 2.30968e-08 16.9353 3.73847 16.9353 8.33328V15.7224C16.9354 18.081 15.0784 20 12.7959 20ZM8.06454 1.66666C4.50722 1.66666 1.61298 4.65737 1.61298 8.33328V15.7224C1.61298 17.162 2.74648 18.3333 4.13964 18.3333H12.796C14.1891 18.3333 15.3226 17.162 15.3226 15.7224V8.33328C15.3226 4.65737 12.4284 1.66666 8.87108 1.66666C8.87108 1.66666 8.06454 1.66666 8.06454 1.66666Z" transform="translate(7.25806)" fill="black"/>
<path d="M29.8387 10.8334H-6.67571e-07V6.6967C-6.67571e-07 3.85291 2.61454 1.54748 5.83993 1.54748L14.9193 6.15916e-08L23.9987 1.54748C27.2241 1.54748 29.8386 3.85291 29.8386 6.6967V10.8334H29.8387Z" transform="translate(19.3547 23.3333)" fill="#85D839"/>
<path d="M30.6452 12.5001H0.806443C0.361131 12.5001 -2.38418e-07 12.1269 -2.38418e-07 11.6668V7.5302C-2.38418e-07 4.25189 2.94482 1.58065 6.5788 1.54796L15.5947 0.0112766C15.6813 -0.00375922 15.7703 -0.00375922 15.857 0.0112766L24.8729 1.54796C28.5071 1.58076 31.4517 4.25189 31.4517 7.5302V11.6668C31.4516 12.127 31.0905 12.5001 30.6452 12.5001ZM1.61298 10.8334H29.8387V7.5302C29.8387 5.1502 27.5808 3.21421 24.8051 3.21421C24.761 3.21421 24.7172 3.21048 24.674 3.20321L15.7258 1.67793L6.77772 3.20321C6.73446 3.21048 6.69071 3.21421 6.64657 3.21421C3.87099 3.21421 1.61298 5.1502 1.61298 7.5302V10.8334Z" transform="translate(18.5483 22.4999)" fill="black"/>
<path d="M7.25799 5.8333C4.97333 6.88248 2.28457 6.88248 6.67571e-07 5.8333V8.62282e-08H7.25799V5.8333Z" transform="translate(30.6453 17.5)" fill="#EAC583"/>
<path d="M4.43544 8.28131C3.07656 8.28131 1.71767 7.99694 0.478807 7.42811C0.187792 7.2945 1.09672e-06 6.9959 1.09672e-06 6.66663V0.833328C1.09672e-06 0.37307 0.361133 -2.9564e-07 0.806444 -2.9564e-07H8.06444C8.50975 -2.9564e-07 8.87088 0.373171 8.87088 0.833328V6.66663C8.87088 6.996 8.68299 7.2945 8.39207 7.42811C7.15321 7.99694 5.79432 8.28131 4.43544 8.28131ZM1.61289 6.10546C3.41328 6.78742 5.4577 6.78742 7.25799 6.10546V1.66656H1.61289V6.10546Z" transform="translate(29.8386 16.6668)" fill="black"/>
<path d="M11.9894 18.3333H3.333C1.49228 18.3333 -1.66893e-07 16.7913 -1.66893e-07 14.8892V7.49995C-1.66893e-07 3.35794 3.2496 -3.54152e-08 7.25799 -3.54152e-08H8.06444C12.0728 -3.54152e-08 15.3224 3.35794 15.3224 7.49995V14.8892C15.3225 16.7912 13.8301 18.3333 11.9894 18.3333Z" transform="translate(26.613 0.833313)" fill="#FFDD95"/>
<path d="M12.7961 20H4.13935C1.85703 20 -4.29153e-07 18.081 -4.29153e-07 15.7224V8.33328C-4.29153e-07 3.73827 3.61767 2.30968e-08 8.06444 2.30968e-08H8.87088C13.3178 2.30968e-08 16.9353 3.73847 16.9353 8.33328V15.7224C16.9355 18.081 15.0784 20 12.7961 20ZM8.06453 1.66666C4.50722 1.66666 1.61298 4.65737 1.61298 8.33328V15.7224C1.61298 17.162 2.74628 18.3333 4.13945 18.3333H12.7962C14.1893 18.3333 15.3226 17.162 15.3226 15.7224V8.33328C15.3226 4.65737 12.4284 1.66666 8.87108 1.66666C8.87108 1.66666 8.06453 1.66666 8.06453 1.66666Z" transform="translate(25.8064)" fill="black"/>
<path d="M29.8386 10.8334H3.27825e-07V6.6967C3.27825e-07 3.85291 2.61455 1.54748 5.83993 1.54748L14.9193 4.92733e-07L23.9987 1.54748C27.2241 1.54748 29.8386 3.85291 29.8386 6.6967V10.8334Z" transform="translate(10.4839 38.3333)" fill="#EE5281"/>
<path d="M30.6451 12.5H0.806444C0.361132 12.5 1.19209e-08 12.1268 1.19209e-08 11.6667V7.5301C1.19209e-08 4.25179 2.94472 1.58045 6.57841 1.54786L15.5946 0.0109729C15.6812 -0.0036593 15.7702 -0.0036593 15.8569 0.0109729L24.8728 1.54786C28.507 1.58045 31.4516 4.25179 31.4516 7.5301V11.6667C31.4515 12.1268 31.0905 12.5 30.6451 12.5ZM1.61289 10.8333H29.8386V7.5301C29.8386 5.1501 27.5807 3.21411 24.805 3.21411C24.7609 3.21411 24.7171 3.21038 24.6739 3.20311L15.7258 1.67804L6.77762 3.20311C6.73407 3.21038 6.69022 3.21411 6.64628 3.21411C3.8707 3.21411 1.61289 5.1501 1.61289 7.5301C1.61289 7.5301 1.61289 10.8333 1.61289 10.8333Z" transform="translate(9.67749 37.5)" fill="black"/>
<path d="M7.25799 5.8333C4.97333 6.88248 2.28457 6.88248 2.26497e-07 5.8333V5.17369e-07H7.25799V5.8333Z" transform="translate(21.7742 32.5)" fill="#EAC583"/>
<path d="M4.43544 8.28121C3.07656 8.28121 1.71758 7.99684 0.479004 7.42831C0.187598 7.2945 6.5565e-07 6.9958 6.5565e-07 6.66663V0.833329C6.5565e-07 0.373172 0.361132 9.60829e-07 0.806444 9.60829e-07H8.06444C8.50985 9.60829e-07 8.87088 0.373172 8.87088 0.833329V6.66663C8.87088 6.9959 8.68299 7.2945 8.39207 7.42831C7.15331 7.99674 5.79432 8.28121 4.43544 8.28121ZM1.61289 6.10556C3.41327 6.78752 5.45771 6.78752 7.258 6.10556V1.66666H1.61289V6.10556Z" transform="translate(20.9678 31.6667)" fill="black"/>
<path d="M11.9894 18.3333H3.333C1.49228 18.3333 8.34463e-08 16.7913 8.34463e-08 14.8892V7.49995C8.34463e-08 3.35794 3.2496 -5.66642e-07 7.25799 -5.66642e-07H8.06444C12.0728 -5.66642e-07 15.3224 3.35794 15.3224 7.49995V14.8892C15.3224 16.7913 13.8301 18.3333 11.9894 18.3333Z" transform="translate(17.7419 15.8333)" fill="#FFDD95"/>
<path d="M12.7961 20H4.13954C1.85703 20 -1.78814e-07 18.081 -1.78814e-07 15.7226V8.33328C-1.78814e-07 3.73827 3.61786 -1.23183e-07 8.06444 -1.23183e-07H8.87088C13.3178 -1.23183e-07 16.9353 3.73847 16.9353 8.33328V15.7226C16.9354 18.081 15.0783 20 12.7961 20ZM8.06454 1.66656C4.50722 1.66656 1.61298 4.65727 1.61298 8.33318V15.7225C1.61298 17.1621 2.74648 18.3332 4.13964 18.3332H12.7961C14.1892 18.3332 15.3225 17.1621 15.3225 15.7225V8.33318C15.3225 4.65727 12.4283 1.66656 8.87098 1.66656H8.06454Z" transform="translate(16.9355 15)" fill="black"/>
</svg>
