<?xml version="1.0" encoding="iso-8859-1"?>
<!-- Generator: Adobe Illustrator 19.0.0, SVG Export Plug-In . SVG Version: 6.00 Build 0)  -->
<svg xmlns="http://www.w3.org/2000/svg" xmlns:xlink="http://www.w3.org/1999/xlink" version="1.1" id="Capa_1" x="0px" y="0px" viewBox="0 0 216.748 216.748" style="enable-background:new 0 0 216.748 216.748;" xml:space="preserve" width="512px" height="512px">
<g>
	<g>
		<path d="M213.089,147.794c-3.384-4.521-10.563-7.008-19.651-10.158c-21.683-7.513-54.45-18.865-65.707-66.961    c-0.423-1.807-2.22-2.937-4.038-2.56c-0.282,0.06-28.349,5.82-48.524-8.735c-11.568-8.346-18.466-21.847-20.506-40.132    c-0.148-1.319-1.046-2.434-2.304-2.857c-1.258-0.422-2.645-0.077-3.562,0.882C0,68.569,0,69.554,0,71.341    c0,0.133,0.009,0.268,0.024,0.401l2.323,19.63c0.116,0.975,0.645,1.853,1.456,2.41l135.516,93.194    c0.568,0.393,1.242,0.602,1.934,0.602h61.292c1.014,0,1.975-0.452,2.621-1.231C205.957,185.397,224.396,162.9,213.089,147.794z     M200.893,180.752h-58.581L8.946,89.035l-1.99-16.809c4.052-4.958,25.786-28.109,41.974-45.175    c3.166,16.787,10.646,29.515,22.291,37.898c18.582,13.375,42.076,11.621,50.637,10.4c12.817,49.15,48.096,61.375,69.347,68.738    c7.668,2.657,14.29,4.951,16.422,7.798C213.879,160.238,205.624,174.527,200.893,180.752z" fill="#2d3039"/>
	</g>
</g>
<g>
	<g>
		<path d="M121.114,180.054H32.198c-1.884,0-3.413,1.529-3.413,3.413s1.529,3.413,3.413,3.413h88.916    c1.886,0,3.413-1.529,3.413-3.413S122.998,180.054,121.114,180.054z" fill="#2d3039"/>
	</g>
</g>
<g>
	<g>
		<path d="M199.77,193.707H62.978c-1.884,0-3.413,1.529-3.413,3.413c0,1.884,1.529,3.413,3.413,3.413H199.77    c1.884,0,3.413-1.529,3.413-3.413C203.184,195.236,201.655,193.707,199.77,193.707z" fill="#2d3039"/>
	</g>
</g>
<g>
	<g>
		<path d="M62.978,67.414c-7.538,0-13.672,6.125-13.672,13.653c0,7.528,6.134,13.653,13.672,13.653S76.65,88.595,76.65,81.067    C76.65,73.539,70.516,67.414,62.978,67.414z M62.978,87.894c-3.775,0-6.845-3.062-6.845-6.827s3.07-6.827,6.845-6.827    c3.775,0,6.845,3.062,6.845,6.827S66.753,87.894,62.978,87.894z" fill="#2d3039"/>
	</g>
</g>
<g>
	<g>
		<path d="M206.609,169.814H146.13L21.316,82.27c-2.999-7.564-6.137-16.434-6.221-18.284c-0.007-1.877-1.533-3.4-3.413-3.4    c-1.884,0-3.413,1.529-3.413,3.413c0,3.674,4.954,16.435,7.084,21.75c0.247,0.616,0.666,1.145,1.208,1.526l126.532,88.747    c0.573,0.401,1.258,0.618,1.959,0.618h61.556c1.884,0,3.413-1.529,3.413-3.413S208.493,169.814,206.609,169.814z" fill="#2d3039"/>
	</g>
</g>
<g>
	<g>
		<path d="M141.35,103.619c-0.741-1.734-2.746-2.536-4.48-1.797l-23.939,10.24c-1.732,0.742-2.538,2.748-1.795,4.48    c0.555,1.297,1.816,2.074,3.14,2.074c0.449,0,0.905-0.09,1.34-0.276l23.939-10.24C141.286,107.357,142.092,105.351,141.35,103.619    z" fill="#2d3039"/>
	</g>
</g>
<g>
	<g>
		<path d="M147.784,113.154c-1.132-1.51-3.268-1.818-4.779-0.688l-13.679,10.24c-1.509,1.13-1.816,3.27-0.686,4.779    c0.672,0.898,1.696,1.369,2.736,1.369c0.712,0,1.428-0.222,2.043-0.681l13.679-10.24    C148.606,116.803,148.913,114.663,147.784,113.154z" fill="#2d3039"/>
	</g>
</g>
<g>
	<g>
		<path d="M153.421,118.974c-1.686-0.848-3.736-0.162-4.581,1.524L142,134.151c-0.845,1.686-0.162,3.736,1.522,4.581    c0.492,0.247,1.014,0.362,1.527,0.362c1.251,0,2.456-0.691,3.053-1.886l6.84-13.653    C155.788,121.868,155.105,119.819,153.421,118.974z" fill="#2d3039"/>
	</g>
</g>
<g>
</g>
<g>
</g>
<g>
</g>
<g>
</g>
<g>
</g>
<g>
</g>
<g>
</g>
<g>
</g>
<g>
</g>
<g>
</g>
<g>
</g>
<g>
</g>
<g>
</g>
<g>
</g>
<g>
</g>
</svg>
