<?xml version="1.0" encoding="iso-8859-1"?>
<!-- Generator: Adobe Illustrator 19.0.0, SVG Export Plug-In . SVG Version: 6.00 Build 0)  -->
<svg version="1.1" id="Capa_1" xmlns="http://www.w3.org/2000/svg" xmlns:xlink="http://www.w3.org/1999/xlink" x="0px" y="0px"
	 viewBox="0 0 216.748 216.748" style="enable-background:new 0 0 216.748 216.748;" xml:space="preserve">
<path style="fill:#85D839;" d="M141.252,184.165h61.292c0,0,17.637-21.204,7.815-34.326c-9.822-13.121-69.702-8.974-85.949-78.386
	c0,0-65.778,14.147-73.137-51.826c0,0-47.858,50.306-47.858,51.714l2.323,19.63L141.252,184.165z"/>
<path d="M202.544,187.578h-61.292c-0.691,0-1.365-0.21-1.934-0.602L3.802,93.782c-0.811-0.556-1.34-1.435-1.456-2.41l-2.323-19.63
	C0.009,71.609,0,71.474,0,71.341c0-1.787,0-2.772,48.799-54.067c0.916-0.959,2.304-1.304,3.562-0.882
	c1.258,0.423,2.156,1.538,2.304,2.857c2.039,18.285,8.938,31.787,20.506,40.132c20.175,14.554,48.242,8.794,48.524,8.735
	c1.818-0.377,3.615,0.753,4.038,2.56c11.257,48.096,44.023,59.448,65.707,66.961c9.088,3.15,16.266,5.637,19.651,10.158
	c11.307,15.106-7.132,37.603-7.924,38.554C204.518,187.126,203.558,187.578,202.544,187.578z M142.312,180.752h58.581
	c4.731-6.224,12.986-20.514,6.733-28.867c-2.132-2.847-8.753-5.14-16.422-7.798c-21.251-7.363-56.53-19.587-69.347-68.738
	c-8.561,1.22-32.055,2.975-50.637-10.4C59.576,56.566,52.096,43.838,48.93,27.051C32.742,44.118,11.008,67.269,6.956,72.226
	l1.99,16.809L142.312,180.752z"/>
<path d="M121.114,186.88H32.198c-1.884,0-3.413-1.529-3.413-3.413s1.529-3.413,3.413-3.413h88.916c1.884,0,3.413,1.529,3.413,3.413
	S122.999,186.88,121.114,186.88z"/>
<path d="M199.77,200.534H62.978c-1.884,0-3.413-1.529-3.413-3.413c0-1.884,1.529-3.413,3.413-3.413H199.77
	c1.884,0,3.413,1.529,3.413,3.413C203.184,199.005,201.655,200.534,199.77,200.534z"/>
<ellipse style="fill:#ED5481;" cx="62.978" cy="81.067" rx="10.257" ry="10.24"/>
<path d="M62.978,94.72c-7.538,0-13.672-6.125-13.672-13.653s6.134-13.653,13.672-13.653S76.65,73.539,76.65,81.067
	S70.516,94.72,62.978,94.72z M62.978,74.24c-3.775,0-6.845,3.062-6.845,6.827c0,3.765,3.07,6.827,6.845,6.827
	s6.845-3.062,6.845-6.827C69.823,77.302,66.753,74.24,62.978,74.24z"/>
<path d="M206.609,176.64h-61.556c-0.701,0-1.386-0.217-1.959-0.618L16.561,87.276c-0.543-0.381-0.961-0.91-1.208-1.526
	C13.223,80.436,8.269,67.675,8.269,64c0-1.884,1.529-3.413,3.413-3.413c1.881,0,3.407,1.522,3.413,3.4
	c0.084,1.85,3.222,10.72,6.221,18.284l124.814,87.543h60.479c1.884,0,3.413,1.529,3.413,3.413S208.493,176.64,206.609,176.64z
	 M15.094,64h0.017H15.094z"/>
<path d="M114.275,118.615c-1.324,0-2.586-0.777-3.14-2.074c-0.742-1.732,0.063-3.738,1.795-4.48l23.939-10.24
	c1.734-0.739,3.739,0.063,4.48,1.797c0.742,1.732-0.063,3.738-1.795,4.48l-23.939,10.24
	C115.18,118.525,114.724,118.615,114.275,118.615z"/>
<path d="M131.376,128.854c-1.039,0-2.063-0.471-2.736-1.369c-1.13-1.509-0.823-3.649,0.686-4.779l13.679-10.24
	c1.51-1.13,3.647-0.823,4.779,0.688c1.13,1.509,0.823,3.649-0.686,4.779l-13.679,10.24
	C132.804,128.632,132.087,128.854,131.376,128.854z"/>
<path d="M145.05,139.094c-0.514,0-1.036-0.114-1.527-0.362c-1.684-0.845-2.367-2.895-1.522-4.581l6.84-13.653
	c0.845-1.686,2.895-2.372,4.581-1.524c1.684,0.845,2.367,2.895,1.522,4.581l-6.84,13.653
	C147.505,138.402,146.301,139.094,145.05,139.094z"/>
<g>
</g>
<g>
</g>
<g>
</g>
<g>
</g>
<g>
</g>
<g>
</g>
<g>
</g>
<g>
</g>
<g>
</g>
<g>
</g>
<g>
</g>
<g>
</g>
<g>
</g>
<g>
</g>
<g>
</g>
</svg>
