<?xml version="1.0" encoding="iso-8859-1"?>
<!-- Generator: Adobe Illustrator 19.0.0, SVG Export Plug-In . SVG Version: 6.00 Build 0)  -->
<svg version="1.1" id="Capa_1" xmlns="http://www.w3.org/2000/svg" xmlns:xlink="http://www.w3.org/1999/xlink" x="0px" y="0px"
	 viewBox="0 0 416.429 416.429" style="enable-background:new 0 0 416.429 416.429;" xml:space="preserve">
<circle style="fill:#FFE600;" cx="105.814" cy="100.695" r="47.787"/>
<polyline style="fill:#FFFFFF;" points="365.228,213.339 365.228,407.895 51.201,407.895 51.201,155.309 208.214,18.775 
	365.228,155.309 "/>
<path style="fill:#602F75;" d="M365.228,414.722H51.201c-3.768,0-6.827-3.058-6.827-6.827V155.309c0-1.976,0.857-3.854,2.348-5.151
	L203.736,13.625c2.57-2.232,6.39-2.232,8.96,0l157.013,136.533c2.843,2.475,3.144,6.786,0.672,9.632
	c-2.475,2.843-6.786,3.144-9.632,0.672L208.214,27.824L58.028,158.418v242.65h300.373V213.335c0-3.768,3.058-6.827,6.827-6.827
	s6.827,3.058,6.827,6.827v194.56C372.054,411.667,368.996,414.722,365.228,414.722z"/>
<g>
	<path style="fill:#EA3457;" d="M399.358,199.682c-2.427,0-4.864-0.857-6.816-2.601L208.214,32.504L23.888,197.085
		c-4.222,3.768-10.691,3.4-14.459-0.819c-3.768-4.219-3.4-10.694,0.819-14.459L201.395,11.14c3.888-3.468,9.752-3.468,13.64,0
		l191.147,170.667c4.219,3.768,4.587,10.24,0.819,14.459C404.979,198.528,402.174,199.682,399.358,199.682z"/>
	<path style="fill:#EA3457;" d="M399.358,206.509c-4.195,0-8.233-1.539-11.363-4.335L208.214,41.655L28.434,202.174
		c-7.021,6.26-17.831,5.652-24.098-1.362c-3.038-3.403-4.567-7.782-4.308-12.336c0.256-4.55,2.273-8.731,5.673-11.766L196.848,6.044
		c6.479-5.782,16.251-5.782,22.729-0.003l191.15,170.67c3.4,3.034,5.417,7.212,5.673,11.766c0.259,4.55-1.273,8.933-4.308,12.332
		C408.86,204.43,404.218,206.509,399.358,206.509z M208.214,25.677c1.628,0,3.253,0.577,4.547,1.734l184.327,164.581
		c0.802,0.713,1.676,0.864,2.27,0.864c0.573,0,1.666-0.147,2.55-1.14c0.819-0.918,0.891-1.939,0.864-2.468
		c-0.031-0.526-0.218-1.536-1.137-2.352L210.488,16.229c-1.297-1.157-3.253-1.154-4.55,0.003L14.794,186.896
		c-0.918,0.819-1.106,1.83-1.137,2.355c-0.027,0.526,0.044,1.55,0.864,2.468c1.253,1.403,3.417,1.522,4.823,0.273L203.668,27.411
		C204.961,26.254,206.586,25.677,208.214,25.677z"/>
</g>
<rect x="153.601" y="162.135" style="fill:#00E7FF;" width="40.96" height="95.573"/>
<path style="fill:#602F75;" d="M194.561,264.535h-40.96c-3.768,0-6.827-3.058-6.827-6.827v-95.573c0-3.768,3.058-6.827,6.827-6.827
	h40.96c3.768,0,6.827,3.058,6.827,6.827v95.573C201.388,261.48,198.329,264.535,194.561,264.535z M160.428,250.882h27.307v-81.92
	h-27.307V250.882z"/>
<rect x="221.868" y="162.135" style="fill:#00E7FF;" width="40.96" height="95.573"/>
<path style="fill:#602F75;" d="M262.828,264.535h-40.96c-3.768,0-6.827-3.058-6.827-6.827v-95.573c0-3.768,3.058-6.827,6.827-6.827
	h40.96c3.768,0,6.827,3.058,6.827,6.827v95.573C269.654,261.48,266.596,264.535,262.828,264.535z M228.694,250.882h27.307v-81.92
	h-27.307V250.882z"/>
<rect x="167.254" y="312.322" style="fill:#EA3457;" width="81.92" height="95.573"/>
<path style="fill:#602F75;" d="M249.174,414.722h-81.92c-3.768,0-6.827-3.058-6.827-6.827v-95.573c0-3.768,3.058-6.827,6.827-6.827
	h81.92c3.768,0,6.827,3.058,6.827,6.827v95.573C256.001,411.667,252.943,414.722,249.174,414.722z M174.081,401.069h68.267v-81.92
	h-68.267V401.069z"/>
<path style="fill:#602F75;" d="M78.508,360.109h-20.48c-3.768,0-6.827-3.058-6.827-6.827s3.058-6.827,6.827-6.827h20.48
	c3.768,0,6.827,3.058,6.827,6.827S82.276,360.109,78.508,360.109z"/>
<path style="fill:#602F75;" d="M98.988,325.975H51.201c-3.768,0-6.827-3.058-6.827-6.827s3.058-6.827,6.827-6.827h47.787
	c3.768,0,6.827,3.058,6.827,6.827S102.756,325.975,98.988,325.975z"/>
<path style="fill:#602F75;" d="M78.508,291.842h-20.48c-3.768,0-6.827-3.058-6.827-6.827s3.058-6.827,6.827-6.827h20.48
	c3.768,0,6.827,3.058,6.827,6.827S82.276,291.842,78.508,291.842z"/>
<path style="fill:#602F75;" d="M98.988,257.709H51.201c-3.768,0-6.827-3.058-6.827-6.827s3.058-6.827,6.827-6.827h47.787
	c3.768,0,6.827,3.058,6.827,6.827S102.756,257.709,98.988,257.709z"/>
<g>
</g>
<g>
</g>
<g>
</g>
<g>
</g>
<g>
</g>
<g>
</g>
<g>
</g>
<g>
</g>
<g>
</g>
<g>
</g>
<g>
</g>
<g>
</g>
<g>
</g>
<g>
</g>
<g>
</g>
</svg>
