<?xml version="1.0" encoding="iso-8859-1"?>
<!-- Generator: Adobe Illustrator 19.0.0, SVG Export Plug-In . SVG Version: 6.00 Build 0)  -->
<svg xmlns="http://www.w3.org/2000/svg" xmlns:xlink="http://www.w3.org/1999/xlink" version="1.1" id="Capa_1" x="0px" y="0px" viewBox="0 0 208.205 208.205" style="enable-background:new 0 0 208.205 208.205;" xml:space="preserve" width="512px" height="512px">
<g>
	<g>
		<path d="M182.606,82.93c-1.884,0-3.413,1.529-3.413,3.413v114.186H29.008V86.343c0-1.884-1.529-3.413-3.413-3.413    s-3.413,1.529-3.413,3.413v117.6c0,1.884,1.529,3.413,3.413,3.413h157.012c1.886,0,3.413-1.527,3.413-3.413v-117.6    C186.02,84.459,184.491,82.93,182.606,82.93z" fill="#2d3039"/>
	</g>
</g>
<g>
	<g>
		<path d="M205.358,88.35L109.785,3.015c-3.239-2.888-8.125-2.889-11.365,0.002L2.847,88.35c-3.511,3.133-3.816,8.538-0.683,12.051    c3.132,3.507,8.538,3.811,12.049,0.681l89.888-80.259l89.89,80.259c1.565,1.398,3.584,2.167,5.681,2.167    c2.429,0,4.75-1.039,6.368-2.85C209.174,96.888,208.869,91.482,205.358,88.35z M200.946,95.853    c-0.442,0.497-0.988,0.57-1.275,0.57c-0.297,0-0.734-0.075-1.135-0.432L106.375,13.7c-0.647-0.579-1.459-0.867-2.273-0.867    s-1.626,0.288-2.277,0.869L9.665,95.991c-0.705,0.626-1.787,0.565-2.411-0.137c-0.628-0.703-0.567-1.783,0.137-2.411    l95.572-85.332c0.649-0.579,1.626-0.579,2.275-0.002l95.573,85.333C201.513,94.069,201.574,95.151,200.946,95.853z" fill="#2d3039"/>
	</g>
</g>
<g>
	<g>
		<path d="M97.275,77.649h-20.48c-1.884,0-3.413,1.529-3.413,3.413v47.787c0,1.884,1.529,3.413,3.413,3.413h20.48    c1.884,0,3.413-1.528,3.413-3.413V81.063C100.688,79.178,99.159,77.649,97.275,77.649z M93.861,125.436H80.208v-40.96h13.653    V125.436z" fill="#2d3039"/>
	</g>
</g>
<g>
	<g>
		<path d="M131.408,77.649h-20.48c-1.884,0-3.413,1.529-3.413,3.413v47.787c0,1.884,1.529,3.413,3.413,3.413h20.48    c1.884,0,3.413-1.528,3.413-3.413V81.063C134.821,79.178,133.292,77.649,131.408,77.649z M127.995,125.436h-13.653v-40.96h13.653    V125.436z" fill="#2d3039"/>
	</g>
</g>
<g>
	<g>
		<path d="M124.581,152.743h-40.96c-1.884,0-3.413,1.529-3.413,3.413v47.787c0,1.884,1.529,3.413,3.413,3.413h40.96    c1.884,0,3.413-1.527,3.413-3.413v-47.787C127.995,154.272,126.466,152.743,124.581,152.743z M121.168,200.529H87.035v-40.96    h34.133V200.529z" fill="#2d3039"/>
	</g>
</g>
<g>
	<g>
		<path d="M39.248,173.223h-10.24c-1.884,0-3.413,1.529-3.413,3.413s1.529,3.413,3.413,3.413h10.24c1.886,0,3.413-1.529,3.413-3.413    S41.132,173.223,39.248,173.223z" fill="#2d3039"/>
	</g>
</g>
<g>
	<g>
		<path d="M49.488,156.156H25.595c-1.884,0-3.413,1.529-3.413,3.413s1.529,3.413,3.413,3.413h23.893    c1.884,0,3.413-1.529,3.413-3.413S51.372,156.156,49.488,156.156z" fill="#2d3039"/>
	</g>
</g>
<g>
	<g>
		<path d="M39.248,139.089h-10.24c-1.884,0-3.413,1.529-3.413,3.413s1.529,3.413,3.413,3.413h10.24c1.886,0,3.413-1.529,3.413-3.413    S41.132,139.089,39.248,139.089z" fill="#2d3039"/>
	</g>
</g>
<g>
	<g>
		<path d="M49.488,122.022H25.595c-1.884,0-3.413,1.529-3.413,3.413c0,1.884,1.529,3.413,3.413,3.413h23.893    c1.884,0,3.413-1.529,3.413-3.413C52.901,123.552,51.372,122.022,49.488,122.022z" fill="#2d3039"/>
	</g>
</g>
<g>
</g>
<g>
</g>
<g>
</g>
<g>
</g>
<g>
</g>
<g>
</g>
<g>
</g>
<g>
</g>
<g>
</g>
<g>
</g>
<g>
</g>
<g>
</g>
<g>
</g>
<g>
</g>
<g>
</g>
</svg>
