<?xml version="1.0" encoding="iso-8859-1"?>
<!-- Generator: Adobe Illustrator 19.0.0, SVG Export Plug-In . SVG Version: 6.00 Build 0)  -->
<svg version="1.1" id="Capa_1" xmlns="http://www.w3.org/2000/svg" xmlns:xlink="http://www.w3.org/1999/xlink" x="0px" y="0px"
	 viewBox="0 0 512.001 512.001" style="enable-background:new 0 0 512.001 512.001;" xml:space="preserve">
<polygon style="fill:#FEDA38;" points="256,146.285 82.285,146.285 82.285,18.285 "/>
<path d="M256,155.428H82.285c-5.049,0-9.143-4.093-9.143-9.143v-128c0-3.449,1.942-6.605,5.02-8.161
	c3.071-1.549,6.766-1.246,9.547,0.799l173.715,128c3.179,2.343,4.496,6.465,3.263,10.217
	C263.451,152.893,259.951,155.428,256,155.428z M91.428,137.143h136.75L91.428,36.38V137.143z"/>
<polygon style="fill:#FEDA38;" points="36.572,45.715 246.857,137.143 256,164.572 36.572,164.572 "/>
<path d="M256,173.715H36.572c-5.049,0-9.143-4.093-9.143-9.143V45.715c0-3.082,1.554-5.956,4.129-7.645
	c2.578-1.692,5.835-1.969,8.659-0.739l210.285,91.428c2.379,1.033,4.208,3.031,5.029,5.493l9.143,27.428
	c0.929,2.788,0.459,5.852-1.259,8.236C261.696,172.302,258.937,173.715,256,173.715z M45.715,155.428h197.601l-3.842-11.526
	L45.715,59.658V155.428z"/>
<polygon style="fill:#FEDA38;" points="256,146.285 429.715,146.285 429.715,18.285 "/>
<path d="M429.715,155.428H256c-3.948,0-7.453-2.535-8.686-6.288c-1.235-3.752,0.083-7.872,3.261-10.217L424.29,10.924
	c2.777-2.042,6.469-2.354,9.549-0.799c3.076,1.556,5.018,4.712,5.018,8.161v128C438.857,151.335,434.764,155.428,429.715,155.428z
	 M283.821,137.143h136.75V36.38L283.821,137.143z"/>
<polygon style="fill:#FEDA38;" points="475.429,45.715 265.143,137.143 256,164.572 475.429,164.572 "/>
<path d="M475.429,173.715H256c-2.94,0-5.699-1.413-7.417-3.797c-1.719-2.384-2.185-5.449-1.257-8.236l9.143-27.428
	c0.821-2.462,2.648-4.46,5.027-5.493l210.285-91.428c2.831-1.23,6.085-0.953,8.661,0.739c2.576,1.689,4.129,4.563,4.129,7.645
	v118.857C484.572,169.62,480.477,173.715,475.429,173.715z M268.683,155.428h197.603v-95.77l-193.759,84.243L268.683,155.428z"/>
<polygon style="fill:#26BBEC;" points="256,493.715 9.143,457.143 9.143,100.572 256,137.143 "/>
<path d="M256,502.857c-0.446,0-0.893-0.031-1.339-0.098L7.804,466.188C3.319,465.523,0,461.674,0,457.143V100.572
	c0-2.659,1.156-5.185,3.17-6.922c2.014-1.737,4.692-2.505,7.313-2.123l246.857,36.572c4.482,0.665,7.804,4.513,7.804,9.045v356.572
	c0,2.661-1.156,5.188-3.17,6.924C260.303,502.08,258.178,502.857,256,502.857z M18.285,449.255l228.572,33.861V145.031
	L18.285,111.169V449.255z"/>
<polygon style="fill:#288EEA;" points="256,493.715 502.857,457.143 502.857,100.572 256,137.143 "/>
<path d="M256,502.857c-2.178,0-4.301-0.776-5.973-2.219c-2.013-1.737-3.17-4.263-3.17-6.924V137.143c0-4.531,3.319-8.38,7.804-9.045
	l246.857-36.572c2.625-0.386,5.294,0.386,7.313,2.123c2.013,1.737,3.17,4.263,3.17,6.922v356.572c0,4.531-3.322,8.38-7.804,9.045
	L257.34,502.76C256.893,502.826,256.447,502.857,256,502.857z M265.143,145.031v338.085l228.572-33.861V111.169L265.143,145.031z"/>
<polygon style="fill:#FEDA38;" points="457.143,393.143 301.715,420.572 301.715,347.428 457.143,320 "/>
<path d="M301.715,429.715c-2.134,0-4.219-0.746-5.875-2.139c-2.071-1.737-3.268-4.303-3.268-7.005v-73.143
	c0-4.437,3.184-8.232,7.553-9.005l155.428-27.428c2.687-0.464,5.398,0.263,7.464,2c2.071,1.737,3.268,4.303,3.268,7.005v73.143
	c0,4.437-3.184,8.232-7.553,9.005l-155.428,27.428C302.773,429.67,302.241,429.715,301.715,429.715z M310.857,355.098v54.576
	L448,385.474v-54.576L310.857,355.098z"/>
<g>
</g>
<g>
</g>
<g>
</g>
<g>
</g>
<g>
</g>
<g>
</g>
<g>
</g>
<g>
</g>
<g>
</g>
<g>
</g>
<g>
</g>
<g>
</g>
<g>
</g>
<g>
</g>
<g>
</g>
</svg>
