<?xml version="1.0" encoding="iso-8859-1"?>
<!-- Generator: Adobe Illustrator 19.0.0, SVG Export Plug-In . SVG Version: 6.00 Build 0)  -->
<svg version="1.1" id="Capa_1" xmlns="http://www.w3.org/2000/svg" xmlns:xlink="http://www.w3.org/1999/xlink" x="0px" y="0px"
	 viewBox="0 0 382.024 382.024" style="enable-background:new 0 0 382.024 382.024;" xml:space="preserve">
<path style="fill:#FEDA38;" d="M231.284,160.792c0,0,39.765,34.098,81.478,40.443c41.711,6.344,100.495,78.793,28.657,135.883
	s-167.75,46.807-262.482-41.696S-3.611,97.251,37.663,46.626s87.67-45.447,125.017-12.283
	c15.753,13.988,13.105,40.351,28.271,73.213C206.114,140.416,231.284,160.792,231.284,160.792z"/>
<path d="M242.534,379.841c-54.004,0-111.874-26.754-168.26-79.433c-98.79-92.3-83.977-206.486-41.904-258.092
	c20.014-24.554,42.274-37.973,66.157-39.9c23.071-1.853,46.828,7.414,68.687,26.82c10.561,9.38,13.916,22.813,17.804,38.373
	c2.756,11.034,5.883,23.547,12.129,37.086c14.269,30.92,38.197,50.606,38.436,50.801c0.046,0.034,0.097,0.08,0.14,0.113
	c0.384,0.333,38.833,32.906,78.063,38.88c24.487,3.727,56.583,29.034,65.743,63.433c8.166,30.674-3.86,60.692-33.867,84.54
	C314.197,367.468,279.26,379.841,242.534,379.841z M104.315,15.835c-1.57,0-3.13,0.067-4.69,0.193
	c-20.033,1.613-39.1,13.36-56.673,34.913C4.229,98.441-8.762,204.141,83.594,290.434c89.267,83.393,181.693,98.466,253.577,41.334
	c32.671-25.96,33.893-52.574,29.167-70.333c-7.497-28.14-34.284-50.36-54.603-53.453c-42.68-6.494-82.343-39.827-84.826-41.946
	c-1.893-1.546-26.779-22.306-42.156-55.62c-6.784-14.7-10.076-27.88-12.979-39.501c-3.473-13.906-6.221-24.893-13.623-31.468
	C140.677,23.935,122.165,15.835,104.315,15.835z"/>
<path d="M349.001,298.561c-0.72,0-1.457-0.113-2.176-0.36c-3.574-1.2-5.497-5.074-4.294-8.646
	c11.247-33.399-21.791-49.007-23.204-49.654c-3.417-1.567-4.934-5.613-3.374-9.04c1.556-3.42,5.581-4.946,9.013-3.393
	c15.874,7.166,42.677,30.286,30.503,66.447C354.51,296.762,351.851,298.561,349.001,298.561z"/>
<path d="M41.501,191.695c-2.176,0-4.316-1.039-5.641-2.966C2.343,139.781,38.564,76.075,40.12,73.382
	c1.886-3.253,6.06-4.367,9.324-2.48c3.26,1.886,4.376,6.06,2.493,9.327c-0.336,0.58-33.434,58.986-4.809,100.78
	c2.13,3.113,1.333,7.359-1.777,9.492C44.17,191.309,42.827,191.695,41.501,191.695z"/>
<path style="fill:#FBAD4A;" d="M286.565,214.329c4.659-4.658,7.695-10.513,9.373-17.104c-34.968-11.018-64.655-36.432-64.655-36.432
	s-25.17-20.374-40.334-53.236c-4.75-10.293-7.752-19.948-10.119-28.785c-7.714,1.463-14.486,4.765-19.773,10.052
	c-21.328,21.327-10.522,66.714,24.136,101.369C219.851,224.85,265.236,235.657,286.565,214.329z"/>
<path d="M257.191,232.115c-5.652,0-11.646-0.734-17.893-2.22c-20.361-4.847-41.289-17.234-58.93-34.881
	c-17.644-17.64-30.031-38.567-34.877-58.926c-5.13-21.54-1.314-40.04,10.74-52.093c6.144-6.147,13.99-10.16,23.323-11.933
	c3.494-0.66,6.946,1.48,7.869,4.941c1.966,7.34,4.847,17.12,9.726,27.694c14.329,31.053,38.19,50.594,38.431,50.787
	c0.427,0.367,29.247,24.781,62.409,35.227c3.453,1.094,5.456,4.687,4.564,8.201c-2.063,8.093-5.816,14.899-11.163,20.246
	C282.834,227.716,271.027,232.115,257.191,232.115z M176.094,87.148c-3.963,1.5-7.383,3.673-10.209,6.501
	c-8.573,8.573-11.1,22.526-7.11,39.281c4.27,17.934,15.367,36.553,31.247,52.434s34.504,26.981,52.441,31.252
	c16.746,3.994,30.703,1.466,39.277-7.113c2.249-2.253,4.093-4.941,5.513-8.04c-32.867-12.107-59.23-34.48-60.407-35.487
	c-0.934-0.753-26.443-21.647-42.093-55.561C180.818,101.888,178.097,93.908,176.094,87.148z"/>
<g>
</g>
<g>
</g>
<g>
</g>
<g>
</g>
<g>
</g>
<g>
</g>
<g>
</g>
<g>
</g>
<g>
</g>
<g>
</g>
<g>
</g>
<g>
</g>
<g>
</g>
<g>
</g>
<g>
</g>
</svg>
