<?xml version="1.0" encoding="iso-8859-1"?>
<!-- Generator: Adobe Illustrator 19.0.0, SVG Export Plug-In . SVG Version: 6.00 Build 0)  -->
<svg version="1.1" id="Capa_1" xmlns="http://www.w3.org/2000/svg" xmlns:xlink="http://www.w3.org/1999/xlink" x="0px" y="0px"
	 viewBox="0 0 201.391 201.391" style="enable-background:new 0 0 201.391 201.391;" xml:space="preserve">
<path style="fill:#FFFFFF;" d="M125.519,127.148c0-9.972,4.454-19.343,11.959-25.911c11.682-10.223,19.07-25.218,19.07-41.964
	c0-32.951-28.534-59.237-62.239-55.499C68.735,6.611,48.062,27.27,45.2,52.841c-2.161,19.301,5.543,36.864,18.691,48.381
	c7.509,6.576,11.979,15.947,11.979,25.928v12.803h49.649"/>
<path style="fill:#602F75;" d="M125.521,143.364H75.87c-1.884,0-3.413-1.529-3.413-3.413v-12.803
	c0-8.827-3.942-17.343-10.813-23.361C47.057,91.012,39.641,71.824,41.81,52.459C44.85,25.294,66.772,3.392,93.934,0.38
	c17.135-1.893,33.558,3.331,46.28,14.722c12.551,11.235,19.75,27.336,19.75,44.17c0,17.048-7.376,33.28-20.236,44.534
	c-6.861,6.002-10.793,14.51-10.793,23.342c0,1.884-1.529,3.413-3.413,3.413c-1.884,0-3.413-1.529-3.413-3.413
	c0-10.801,4.784-21.181,13.123-28.479c11.38-9.957,17.906-24.317,17.906-39.395c0-14.896-6.369-29.141-17.476-39.084
	c-11.259-10.078-25.813-14.71-40.974-13.022c-24.02,2.664-43.406,22.031-46.094,46.054c-1.947,17.401,4.448,33.959,17.546,45.433
	c8.354,7.315,13.143,17.702,13.143,28.496v9.39h46.237c1.884,0,3.413,1.529,3.413,3.413S127.405,143.364,125.521,143.364z"/>
<path style="fill:#EA3457;" d="M121.179,167.258H80.214c-5.654,0-10.237-4.584-10.237-10.237v-17.07h61.44v17.07
	C131.415,162.675,126.831,167.258,121.179,167.258z"/>
<path style="fill:#602F75;" d="M121.179,170.671H80.212c-7.526,0-13.65-6.124-13.65-13.652v-17.068c0-1.884,1.529-3.413,3.413-3.413
	h61.44c1.884,0,3.413,1.529,3.413,3.413v17.068C134.829,164.547,128.705,170.671,121.179,170.671z M73.389,143.364v13.655
	c0,3.763,3.062,6.825,6.823,6.825h40.967c3.761,0,6.823-3.062,6.823-6.825v-13.655H73.389z"/>
<g>
	<path style="fill:#FFE600;" d="M63.149,61.444c-1.884,0-3.413-1.529-3.413-3.413c0-3.792,0.519-7.55,1.541-11.17
		c0.514-1.812,2.398-2.865,4.214-2.357c1.812,0.514,2.869,2.4,2.357,4.214c-0.853,3.016-1.285,6.149-1.285,9.313
		C66.562,59.917,65.033,61.444,63.149,61.444z"/>
	<path style="fill:#FFE600;" d="M68.352,42.359c-0.59,0-1.188-0.154-1.736-0.476c-1.621-0.959-2.161-3.053-1.2-4.676
		c7.345-12.419,20.864-20.135,35.279-20.135c1.884,0,3.413,1.529,3.413,3.413c0,1.884-1.529,3.413-3.413,3.413
		c-12.013,0-23.281,6.432-29.402,16.783C70.656,41.76,69.518,42.359,68.352,42.359z"/>
</g>
<polygon style="fill:#FFFFFF;" points="117.762,197.978 83.629,197.978 80.215,187.738 121.175,187.738 "/>
<path style="fill:#602F75;" d="M117.762,201.391H83.629c-1.469,0-2.773-0.94-3.238-2.335l-3.413-10.24
	c-0.346-1.041-0.172-2.185,0.469-3.075s1.671-1.418,2.768-1.418h40.96c1.097,0,2.127,0.527,2.768,1.418
	c0.642,0.891,0.817,2.034,0.469,3.075L121,199.056C120.535,200.451,119.232,201.391,117.762,201.391z M86.088,194.564h29.213
	l1.138-3.413H84.95L86.088,194.564z"/>
<rect x="80.215" y="177.496" style="fill:#FFFFFF;" width="40.96" height="10.24"/>
<path style="fill:#602F75;" d="M121.175,191.151h-40.96c-1.884,0-3.413-1.529-3.413-3.413v-10.24c0-1.884,1.529-3.413,3.413-3.413
	h40.96c1.884,0,3.413,1.529,3.413,3.413v10.24C124.589,189.624,123.06,191.151,121.175,191.151z M83.629,184.324h34.133v-3.413
	H83.629V184.324z"/>
<rect x="80.215" y="167.256" style="fill:#FFFFFF;" width="40.96" height="10.24"/>
<path style="fill:#602F75;" d="M121.175,180.911h-40.96c-1.884,0-3.413-1.529-3.413-3.413v-10.24c0-1.884,1.529-3.413,3.413-3.413
	h40.96c1.884,0,3.413,1.529,3.413,3.413v10.24C124.589,179.384,123.06,180.911,121.175,180.911z M83.629,174.084h34.133v-3.413
	H83.629V174.084z"/>
<g>
	<path style="fill:#00E7FF;" d="M189.442,61.444h-17.067c-1.884,0-3.413-1.529-3.413-3.413c0-1.884,1.529-3.413,3.413-3.413h17.067
		c1.884,0,3.413,1.529,3.413,3.413C192.855,59.915,191.326,61.444,189.442,61.444z"/>
	<path style="fill:#00E7FF;" d="M158.726,20.484c-1.038,0-2.063-0.471-2.734-1.365c-1.132-1.509-0.826-3.649,0.681-4.779
		L170.326,4.1c1.516-1.13,3.651-0.824,4.779,0.683c1.132,1.509,0.826,3.649-0.681,4.779l-13.653,10.24
		C160.156,20.262,159.437,20.484,158.726,20.484z"/>
	<path style="fill:#00E7FF;" d="M29.015,61.444H11.949c-1.884,0-3.413-1.529-3.413-3.413c0-1.884,1.529-3.413,3.413-3.413h17.067
		c1.884,0,3.413,1.529,3.413,3.413C32.429,59.915,30.9,61.444,29.015,61.444z"/>
	<path style="fill:#00E7FF;" d="M42.665,20.484c-0.712,0-1.43-0.222-2.045-0.683L26.967,9.562c-1.509-1.132-1.812-3.272-0.681-4.779
		c1.13-1.505,3.267-1.812,4.779-0.683l13.653,10.24c1.509,1.132,1.812,3.272,0.681,4.779C44.729,20.013,43.703,20.484,42.665,20.484
		z"/>
</g>
<g>
	<circle style="fill:#FFE600;" cx="100.695" cy="61.443" r="27.307"/>
	<ellipse style="fill:#FFFFFF;" cx="100.695" cy="51.203" rx="20.48" ry="6.827"/>
</g>
<g>
</g>
<g>
</g>
<g>
</g>
<g>
</g>
<g>
</g>
<g>
</g>
<g>
</g>
<g>
</g>
<g>
</g>
<g>
</g>
<g>
</g>
<g>
</g>
<g>
</g>
<g>
</g>
<g>
</g>
</svg>
