<?xml version="1.0" encoding="iso-8859-1"?>
<!-- Generator: Adobe Illustrator 19.0.0, SVG Export Plug-In . SVG Version: 6.00 Build 0)  -->
<svg xmlns="http://www.w3.org/2000/svg" xmlns:xlink="http://www.w3.org/1999/xlink" version="1.1" id="Capa_1" x="0px" y="0px" viewBox="0 0 512 512" style="enable-background:new 0 0 512 512;" xml:space="preserve" width="512px" height="512px">
<g>
	<g>
		<path d="M404.864,211.787c1.686-30.204-4.506-53.076-18.423-68.021c-10.28-11.039-22.228-14.769-29.241-16.031    c-9.847-19.549-25.931-23.976-36.462-23.451c-19.015-17.205-36.696-17.554-48.437-14.61c-6.806,1.704-12.288,4.643-16.115,7.208    c-3.827-2.564-9.304-5.504-16.115-7.208c-11.745-2.944-29.422-2.6-48.433,14.61c-10.584-0.534-26.615,3.902-36.462,23.451    c-7.013,1.258-18.962,4.992-29.241,16.031c-13.912,14.945-20.105,37.822-18.419,68.021    c-12.129,20.255-22.029,60.959,16.013,89.935c-2.542,18.021,0.905,47.038,27.538,62.323c-1.011,6.925-1.134,17.359,4.454,26.646    c4.687,7.79,12.244,12.994,22.497,15.501c6.104,9.282,23.601,32.446,46.199,32.446c0.154,0,0.313,0,0.472-0.004    c11.688-0.168,22.246-6.404,31.497-18.582c9.256,12.178,19.814,18.414,31.501,18.582c0.159,0.004,0.313,0.004,0.472,0.004    c22.594,0,40.09-23.164,46.199-32.446c10.258-2.511,17.81-7.711,22.502-15.501c5.588-9.278,5.464-19.721,4.453-26.646    c26.633-15.281,30.08-44.297,27.538-62.323C426.889,272.746,416.993,232.042,404.864,211.787z M374.219,290.472    c-3.085,2.057-4.546,5.857-3.677,9.459c0.375,1.532,8.735,37.667-22.815,51.187c-4.22,1.805-6.347,6.55-4.895,10.906    c0.04,0.115,3.593,11.763-1.103,19.571c-2.534,4.206-7.216,6.828-14.305,8.011c-2.578,0.433-4.838,1.991-6.166,4.25    c-4.449,7.574-19.023,27.127-33.099,27.127c-0.084,0-0.159,0-0.243-0.004c-8.188-0.128-16.221-7.296-23.861-21.314    c-1.549-2.838-4.758-4.599-7.985-4.599c-3.231,0-6.206,1.761-7.755,4.59c-7.645,14.018-15.673,21.186-23.865,21.314    c-0.079,0.004-0.159,0.004-0.238,0.004c-14.076,0-28.65-19.553-33.095-27.123c-1.32-2.269-3.584-3.827-6.17-4.259    c-7.058-1.178-11.723-3.783-14.265-7.954c-4.003-6.572-2.167-16.428-1.139-19.628c1.452-4.361-0.675-9.101-4.895-10.906    c-31.559-13.528-23.195-49.655-22.828-51.156c0.905-3.619-0.565-7.415-3.668-9.485c-41.428-27.622-17.187-67.112-14.301-71.499    c1.086-1.629,1.598-3.575,1.461-5.526c-1.858-25.98,2.741-45.82,13.294-57.379c9.997-10.955,22.135-11.317,22.563-11.326    c3.61,0,6.855-2.198,8.196-5.548c7.887-19.721,21.734-17.346,23.159-17.042c3.006,0.746,6.188-0.128,8.382-2.322    c26.169-26.183,46.707-7.729,48.922-5.583c1.655,1.655,3.902,2.586,6.241,2.586h0.229c2.295,0,4.551-0.945,6.197-2.542    c2.255-2.194,22.784-20.657,48.971,5.539c2.119,2.123,5.314,2.988,8.254,2.353c1.558-0.335,15.395-2.71,23.287,17.015    c1.337,3.35,4.586,5.548,8.192,5.548c0.124,0,12.301,0.3,22.312,11.052c10.73,11.529,15.417,31.466,13.546,57.653    c-0.137,1.933,0.38,3.884,1.443,5.504C391.406,223.36,415.651,262.85,374.219,290.472z" fill="#2d3039"/>
	</g>
</g>
<g>
	<g>
		<path d="M163.95,127.541c-4.617-1.527-9.626,0.958-11.167,5.583s0.958,9.622,5.583,11.167    c26.558,8.854,27.436,29.692,27.463,30.782c0.04,4.842,3.977,8.753,8.828,8.753c4.877,0,8.828-3.955,8.823-8.832    C203.48,173.599,203.03,140.57,163.95,127.541z" fill="#2d3039"/>
	</g>
</g>
<g>
	<g>
		<path d="M192.137,272.786c-4.564-1.69-9.653,0.653-11.339,5.226c-0.062,0.163-6.457,16.658-18.529,20.167    c-6.727,1.96-14.676-0.534-23.667-7.384c-3.88-2.953-9.419-2.211-12.372,1.673c-2.957,3.875-2.207,9.415,1.668,12.372    c10.196,7.768,20.127,11.674,29.652,11.674c3.266,0,6.484-0.459,9.648-1.386c20.723-6.02,29.784-29.992,30.159-31.007    C199.049,279.548,196.71,274.476,192.137,272.786z" fill="#2d3039"/>
	</g>
</g>
<g>
	<g>
		<path d="M223.232,330.655c-3.443-3.447-9.035-3.447-12.482,0c-25.573,25.573-19.35,51.937-19.072,53.049    c0.997,3.994,4.573,6.634,8.519,6.634c0.684,0,1.373-0.079,2.07-0.243c4.701-1.117,7.618-5.862,6.563-10.575    c-0.163-0.733-3.814-18.167,14.402-36.383C226.679,339.69,226.679,334.102,223.232,330.655z" fill="#2d3039"/>
	</g>
</g>
<g>
	<g>
		<path d="M237.683,206.19c-10.982-5.482-19.416,1.112-26.854,6.934c-5.91,4.626-13.268,10.39-25.035,15.095    c-21.354,8.541-39.296-13.109-40.09-14.089c-3.054-3.787-8.598-4.409-12.394-1.359c-3.805,3.046-4.423,8.598-1.377,12.407    c0.892,1.112,18.556,22.758,43.582,22.758c5.31,0,10.955-0.975,16.834-3.319c14.106-5.641,22.925-12.548,29.365-17.589    c2.728-2.141,6.466-5.067,7.623-5.226c0,0,0.141,0.031,0.45,0.185c4.361,2.18,9.662,0.41,11.847-3.95    C243.809,213.672,242.044,208.371,237.683,206.19z" fill="#2d3039"/>
	</g>
</g>
<g>
	<g>
		<path d="M359.345,133.129c-1.54-4.626-6.524-7.133-11.167-5.583c-39.08,13.029-39.53,46.053-39.53,47.453    c0,4.837,3.897,8.726,8.735,8.779c0.031,0,0.062,0,0.093,0c4.798,0,8.722-3.884,8.823-8.686    c0.018-0.892,0.768-21.897,27.463-30.795C358.387,142.755,360.889,137.755,359.345,133.129z" fill="#2d3039"/>
	</g>
</g>
<g>
	<g>
		<path d="M385.907,292.471c-2.953-3.875-8.492-4.626-12.372-1.673c-8.973,6.841-16.905,9.318-23.609,7.402    c-10.081-2.891-16.839-15.559-18.595-20.206c-1.69-4.564-6.788-6.903-11.326-5.204c-4.577,1.686-6.916,6.762-5.226,11.335    c0.375,1.015,9.437,24.987,30.159,31.007c3.165,0.922,6.382,1.382,9.644,1.382c9.521,0,19.456-3.906,29.652-11.67    C388.114,301.886,388.86,296.346,385.907,292.471z" fill="#2d3039"/>
	</g>
</g>
<g>
	<g>
		<path d="M293.469,305.986c-3.447-3.447-9.035-3.447-12.482,0c-3.447,3.443-3.447,9.035,0,12.482    c18.11,18.11,14.605,35.447,14.402,36.37c-1.126,4.696,1.748,9.437,6.444,10.615c0.719,0.181,1.439,0.265,2.15,0.265    c3.955,0,7.552-2.675,8.554-6.682C312.814,357.923,319.038,331.56,293.469,305.986z" fill="#2d3039"/>
	</g>
</g>
<g>
	<g>
		<path d="M377.993,242.225c-1.651-4.573-6.705-6.943-11.29-5.31c-1.126,0.402-27.745,9.64-41.582-8.77    c-7.609-10.134-10.906-18.878-13.555-25.905c-3.332-8.836-7.115-18.856-19.354-19.862c-4.877-0.446-9.119,3.213-9.521,8.073    c-0.402,4.86,3.213,9.123,8.073,9.521c0.243,0.022,0.38,0.053,0.415,0.053h0.004c0.993,0.834,2.653,5.23,3.862,8.448    c2.882,7.649,6.837,18.127,15.965,30.279c11.096,14.764,26.509,18.458,39.164,18.458c12.156,0,21.764-3.407,22.563-3.699    C377.3,251.842,379.644,246.797,377.993,242.225z" fill="#2d3039"/>
	</g>
</g>
<g>
	<g>
		<path d="M256.066,99.178c-4.873,0-8.828,3.955-8.828,8.828v295.888c0,4.873,3.955,8.828,8.828,8.828    c4.873,0,8.828-3.955,8.828-8.828V108.005C264.894,103.133,260.939,99.178,256.066,99.178z" fill="#2d3039"/>
	</g>
</g>
<g>
	<g>
		<path d="M210.728,296.06c-26.514-17.677-8.947-54.126-8.161-55.72c2.167-4.361,0.402-9.649-3.955-11.829    c-4.356-2.176-9.662-0.41-11.847,3.95c-8.929,17.863-17.461,57.207,14.164,78.287c1.501,1.006,3.204,1.483,4.886,1.483    c2.851,0,5.654-1.377,7.362-3.933C215.879,304.243,214.784,298.761,210.728,296.06z" fill="#2d3039"/>
	</g>
</g>
<g>
	<g>
		<path d="M256,0c-4.873,0-8.828,3.955-8.828,8.828v44.138c0,4.873,3.955,8.828,8.828,8.828s8.828-3.955,8.828-8.828V8.828    C264.828,3.955,260.873,0,256,0z" fill="#2d3039"/>
	</g>
</g>
<g>
	<g>
		<path d="M256,450.207c-4.873,0-8.828,3.955-8.828,8.828v44.138c0,4.873,3.955,8.828,8.828,8.828s8.828-3.955,8.828-8.828v-44.138    C264.828,454.162,260.873,450.207,256,450.207z" fill="#2d3039"/>
	</g>
</g>
<g>
	<g>
		<path d="M52.966,247.172H8.828C3.955,247.172,0,251.127,0,256s3.955,8.828,8.828,8.828h44.138c4.873,0,8.828-3.955,8.828-8.828    S57.838,247.172,52.966,247.172z" fill="#2d3039"/>
	</g>
</g>
<g>
	<g>
		<path d="M503.172,247.172h-44.138c-4.873,0-8.828,3.955-8.828,8.828s3.955,8.828,8.828,8.828h44.138    c4.873,0,8.828-3.955,8.828-8.828S508.045,247.172,503.172,247.172z" fill="#2d3039"/>
	</g>
</g>
<g>
	<g>
		<path d="M118.674,106.191l-31.21-31.21c-3.443-3.447-9.039-3.447-12.482,0c-3.447,3.447-3.447,9.035,0,12.482l31.21,31.21    c1.721,1.726,3.981,2.586,6.241,2.586s4.52-0.861,6.241-2.586C122.121,115.227,122.121,109.639,118.674,106.191z" fill="#2d3039"/>
	</g>
</g>
<g>
	<g>
		<path d="M437.018,424.536l-31.206-31.206c-3.447-3.447-9.035-3.447-12.482,0s-3.447,9.035,0,12.482l31.206,31.206    c1.726,1.726,3.981,2.586,6.241,2.586c2.255,0,4.515-0.865,6.241-2.586C440.466,433.571,440.466,427.983,437.018,424.536z" fill="#2d3039"/>
	</g>
</g>
<g>
	<g>
		<path d="M437.014,74.982c-3.447-3.447-9.035-3.447-12.482,0l-31.206,31.21c-3.447,3.452-3.447,9.039,0,12.487    c1.726,1.721,3.981,2.582,6.241,2.582s4.52-0.861,6.241-2.582l31.206-31.21C440.461,84.017,440.461,78.429,437.014,74.982z" fill="#2d3039"/>
	</g>
</g>
<g>
	<g>
		<path d="M118.674,393.331c-3.452-3.447-9.039-3.447-12.487,0l-31.21,31.206c-3.447,3.443-3.447,9.035,0,12.482    c1.726,1.726,3.986,2.586,6.245,2.586c2.26,0,4.515-0.865,6.241-2.586l31.21-31.206    C122.121,402.37,122.121,396.778,118.674,393.331z" fill="#2d3039"/>
	</g>
</g>
<g>
</g>
<g>
</g>
<g>
</g>
<g>
</g>
<g>
</g>
<g>
</g>
<g>
</g>
<g>
</g>
<g>
</g>
<g>
</g>
<g>
</g>
<g>
</g>
<g>
</g>
<g>
</g>
<g>
</g>
</svg>
