<?xml version="1.0" encoding="iso-8859-1"?>
<!-- Generator: Adobe Illustrator 19.0.0, SVG Export Plug-In . SVG Version: 6.00 Build 0)  -->
<svg version="1.1" id="Capa_1" xmlns="http://www.w3.org/2000/svg" xmlns:xlink="http://www.w3.org/1999/xlink" x="0px" y="0px"
	 viewBox="0 0 512 512" style="enable-background:new 0 0 512 512;" xml:space="preserve">
<path style="fill:#F97DA3;" d="M256.296,108.005c0,0,27.913-27.913,61.409,5.583c0,0,22.329-5.583,33.496,22.329
	c0,0,50.247,0,44.663,78.16c0,0,33.496,50.247-16.75,83.743c0,0,11.167,44.663-27.913,61.409c0,0,11.167,33.496-22.329,39.08
	c0,0-39.08,66.993-72.576,5.583h-0.23c-33.496,61.409-72.576-5.583-72.576-5.583c-33.496-5.583-22.329-39.08-22.329-39.08
	c-39.08-16.75-27.913-61.409-27.913-61.409c-50.247-33.496-16.75-83.743-16.75-83.743c-5.583-78.16,44.663-78.16,44.663-78.16
	c11.167-27.913,33.496-22.329,33.496-22.329c33.496-33.496,61.409-5.583,61.409-5.583L256.296,108.005L256.296,108.005z"/>
<path d="M224.208,438.639c-22.6,0-40.095-23.163-46.198-32.444c-10.25-2.509-17.806-7.711-22.495-15.5
	c-5.589-9.284-5.465-19.72-4.452-26.646c-26.634-15.284-30.082-44.302-27.539-62.324c-38.041-28.979-28.143-69.679-16.015-89.936
	c-1.685-30.2,4.504-53.075,18.421-68.022c10.28-11.039,22.229-14.772,29.244-16.032c9.847-19.55,25.884-23.971,36.462-23.453
	c19.011-17.207,36.685-17.548,48.431-14.61c6.81,1.703,12.291,4.644,16.118,7.209c3.828-2.565,9.306-5.506,16.117-7.209
	c11.742-2.939,29.423-2.596,48.435,14.61c10.53-0.511,26.617,3.903,36.462,23.453c7.013,1.26,18.961,4.993,29.241,16.032
	c13.931,14.963,20.124,37.87,18.418,68.123c2.832,4.987,8.483,16.364,10.237,30.403c2.094,16.739-0.978,40.202-26.25,59.431
	c2.543,18.026-0.906,47.043-27.539,62.324c1.013,6.927,1.133,17.366-4.452,26.646c-4.69,7.788-12.246,12.991-22.5,15.5
	c-6.103,9.28-23.599,32.444-46.194,32.444c-0.159,0-0.315,0-0.474-0.004c-11.69-0.168-22.246-6.406-31.5-18.582
	c-9.253,12.177-19.81,18.414-31.497,18.582C224.526,438.639,224.365,438.639,224.208,438.639z M189.843,121.907
	c-4.729,0-14.386,2.041-20.485,17.288c-1.341,3.351-4.587,5.55-8.196,5.55c-0.428,0.009-12.565,0.373-22.565,11.325
	c-10.552,11.561-15.151,31.401-13.293,57.377c0.138,1.952-0.375,3.897-1.461,5.526c-2.886,4.388-27.128,43.879,14.301,71.5
	c3.103,2.069,4.574,5.867,3.668,9.487c-0.364,1.5-8.729,37.63,22.827,51.156c4.22,1.806,6.349,6.548,4.897,10.905
	c-1.03,3.198-2.864,13.056,1.138,19.629c2.543,4.172,7.209,6.775,14.268,7.952c2.588,0.431,4.849,1.991,6.172,4.259
	c4.444,7.569,19.019,27.121,33.097,27.121c0.08,0,0.159,0,0.24-0.004c8.192-0.129,16.22-7.297,23.864-21.314
	c1.548-2.836,4.519-4.599,7.75-4.599c3.229,0,6.435,1.762,7.983,4.599c7.642,14.017,15.672,21.185,23.862,21.314
	c0.082,0.004,0.159,0.004,0.242,0.004c14.078,0,28.65-19.552,33.099-27.13c1.328-2.258,3.59-3.819,6.168-4.251
	c7.091-1.181,11.772-3.806,14.306-8.013c4.698-7.806,1.142-19.456,1.103-19.569c-1.452-4.358,0.677-9.1,4.897-10.906
	c31.552-13.522,23.19-49.656,22.814-51.186c-0.871-3.603,0.59-7.401,3.677-9.456c17.827-11.884,25.685-27.358,23.358-45.992
	c-1.784-14.282-8.978-25.401-9.052-25.508c-1.086-1.629-1.599-3.574-1.461-5.526c1.871-26.187-2.815-46.123-13.548-57.651
	c-10.009-10.75-22.19-11.052-22.31-11.052c-3.607,0-6.853-2.198-8.194-5.548c-7.893-19.724-21.729-17.347-23.289-17.015
	c-2.939,0.64-6.133-0.231-8.255-2.351c-26.185-26.194-46.715-7.733-48.97-5.539c-1.646,1.599-3.901,2.541-6.198,2.541h-0.233
	c-2.341,0-4.587-0.931-6.242-2.587c-2.216-2.144-22.752-20.597-48.925,5.582c-2.192,2.192-5.373,3.074-8.382,2.323
	C192.194,122.084,191.231,121.907,189.843,121.907z"/>
<path style="fill:#FFDD95;" d="M194.657,174.998c0,0,0-27.913-33.496-39.08"/>
<path d="M194.658,183.825c-4.851,0-8.786-3.912-8.827-8.753c-0.026-1.088-0.903-21.927-27.462-30.781
	c-4.625-1.543-7.122-6.543-5.582-11.168c1.541-4.625,6.55-7.114,11.168-5.582c39.082,13.03,39.53,46.056,39.53,47.455
	C203.486,179.873,199.532,183.825,194.658,183.825z"/>
<path d="M157.55,316.513c-9.524,0-19.457-3.906-29.653-11.672c-3.877-2.957-4.625-8.496-1.67-12.371
	c2.954-3.88,8.493-4.62,12.373-1.672c8.989,6.849,16.94,9.345,23.666,7.384c12.074-3.509,18.465-20.004,18.528-20.168
	c1.688-4.574,6.775-6.919,11.338-5.224c4.574,1.69,6.912,6.763,5.222,11.336c-0.375,1.017-9.437,24.987-30.159,31.008
	C164.033,316.057,160.815,316.513,157.55,316.513z"/>
<path style="fill:#FFDD95;" d="M200.24,381.559c0,0-5.583-22.329,16.75-44.663"/>
<path d="M200.196,390.337c-3.946,0-7.519-2.638-8.519-6.633c-0.275-1.112-6.502-27.474,19.074-53.047
	c3.448-3.448,9.039-3.448,12.482,0c3.448,3.448,3.448,9.035,0,12.482c-18.218,18.216-14.567,35.651-14.403,36.383
	c1.056,4.716-1.862,9.456-6.565,10.574C201.571,390.259,200.879,390.337,200.196,390.337z"/>
<path d="M175.515,247.936c-25.026,0-42.689-21.646-43.58-22.759c-3.048-3.808-2.428-9.362,1.377-12.408
	c3.797-3.046,9.338-2.433,12.392,1.358c0.795,0.978,18.737,22.621,40.091,14.089c11.766-4.707,19.123-10.467,25.034-15.097
	c7.437-5.821,15.873-12.414,26.855-6.933c4.36,2.181,6.127,7.483,3.948,11.845c-2.185,4.36-7.487,6.125-11.845,3.948
	c-0.308-0.155-0.45-0.183-0.45-0.183c-1.155,0.159-4.895,3.087-7.622,5.224c-6.439,5.041-15.257,11.946-29.364,17.589
	C186.468,246.961,180.825,247.936,175.515,247.936z"/>
<path style="fill:#FFDD95;" d="M317.475,174.998c0,0,0-27.913,33.496-39.08"/>
<path d="M317.474,183.776c-0.03,0-0.061,0-0.094,0c-4.836-0.052-8.733-3.939-8.733-8.778c0-1.399,0.448-34.425,39.53-47.455
	c4.642-1.539,9.625,0.961,11.168,5.582c1.543,4.625-0.957,9.625-5.582,11.168c-26.694,8.899-27.444,29.905-27.462,30.796
	C326.199,179.895,322.271,183.776,317.474,183.776z"/>
<path d="M354.582,316.513c-3.262,0-6.478-0.457-9.642-1.38c-20.724-6.022-29.785-29.991-30.159-31.008
	c-1.69-4.574,0.651-9.646,5.224-11.336c4.539-1.703,9.633,0.633,11.327,5.203c1.758,4.646,8.513,17.314,18.595,20.207
	c6.703,1.914,14.638-0.565,23.608-7.401c3.88-2.957,9.419-2.203,12.371,1.672c2.952,3.875,2.207,9.414-1.672,12.371
	C374.039,312.608,364.104,316.513,354.582,316.513z"/>
<path style="fill:#FFDD95;" d="M303.973,356.891c0,0,5.583-22.329-16.75-44.663"/>
<path d="M303.983,365.72c-0.711,0-1.431-0.082-2.151-0.262c-4.698-1.177-7.569-5.919-6.444-10.616
	c0.203-0.931,3.703-18.263-14.405-36.37c-3.448-3.448-3.448-9.035,0-12.482c3.448-3.448,9.035-3.448,12.482,0
	c25.573,25.573,19.349,51.935,19.074,53.047C311.535,363.043,307.935,365.72,303.983,365.72z"/>
<path d="M350.172,257.214c-12.655,0-28.069-3.696-39.164-18.459c-9.129-12.148-13.082-22.628-15.965-30.281
	c-1.211-3.218-2.871-7.614-3.862-8.448l-0.004,0.002c-0.035,0-0.172-0.033-0.414-0.052c-4.858-0.399-8.474-4.662-8.074-9.522
	c0.401-4.858,4.642-8.509,9.522-8.074c12.242,1.006,16.017,11.026,19.353,19.864c2.646,7.026,5.944,15.772,13.556,25.901
	c13.84,18.414,40.453,9.172,41.582,8.773c4.587-1.631,9.638,0.735,11.288,5.308c1.651,4.574-0.694,9.616-5.259,11.284
	C371.936,253.804,362.328,257.214,350.172,257.214z"/>
<path d="M256.065,412.72c-4.875,0-8.827-3.952-8.827-8.827V108.006c0-4.875,3.952-8.827,8.827-8.827s8.827,3.952,8.827,8.827
	v295.886C264.893,408.768,260.94,412.72,256.065,412.72z"/>
<path d="M205.815,312.234c-1.683,0-3.384-0.478-4.888-1.483c-31.623-21.082-23.095-60.427-14.166-78.286
	c2.183-4.36,7.491-6.129,11.845-3.948c4.356,2.179,6.122,7.47,3.954,11.827c-0.786,1.594-18.353,38.041,8.159,55.717
	c4.056,2.703,5.153,8.185,2.448,12.242C211.468,310.854,208.669,312.234,205.815,312.234z"/>
<path d="M256,61.793c-4.875,0-8.827-3.952-8.827-8.827V8.827C247.173,3.952,251.125,0,256,0c4.875,0,8.827,3.952,8.827,8.827v44.138
	C264.827,57.841,260.875,61.793,256,61.793z"/>
<path d="M256,512c-4.875,0-8.827-3.952-8.827-8.827v-44.138c0-4.875,3.952-8.827,8.827-8.827c4.875,0,8.827,3.952,8.827,8.827
	v44.138C264.827,508.048,260.875,512,256,512z"/>
<path d="M52.966,264.827H8.827C3.952,264.827,0,260.875,0,256c0-4.875,3.952-8.827,8.827-8.827h44.138
	c4.875,0,8.827,3.952,8.827,8.827C61.793,260.875,57.841,264.827,52.966,264.827z"/>
<path d="M503.173,264.827h-44.138c-4.875,0-8.827-3.952-8.827-8.827c0-4.875,3.952-8.827,8.827-8.827h44.138
	c4.875,0,8.827,3.952,8.827,8.827C512,260.875,508.048,264.827,503.173,264.827z"/>
<path d="M112.434,121.261c-2.258,0-4.519-0.862-6.242-2.587L74.981,87.463c-3.448-3.446-3.448-9.037,0-12.482
	c3.444-3.448,9.039-3.448,12.482,0l31.211,31.211c3.448,3.446,3.448,9.037,0,12.482
	C116.953,120.399,114.692,121.261,112.434,121.261z"/>
<path d="M430.777,439.604c-2.258,0-4.517-0.862-6.242-2.587l-31.207-31.207c-3.448-3.448-3.448-9.035,0-12.482
	c3.448-3.448,9.035-3.448,12.483,0l31.207,31.207c3.448,3.448,3.448,9.035,0,12.483
	C435.294,438.742,433.035,439.604,430.777,439.604z"/>
<path d="M399.57,121.261c-2.258,0-4.517-0.862-6.242-2.585c-3.448-3.448-3.448-9.037,0-12.485l31.207-31.211
	c3.448-3.448,9.035-3.446,12.482-0.002c3.448,3.448,3.448,9.037,0,12.485l-31.207,31.211
	C404.087,120.399,401.828,121.261,399.57,121.261z"/>
<path d="M81.222,439.604c-2.258,0-4.519-0.862-6.244-2.587c-3.446-3.448-3.446-9.039,0.002-12.483l31.211-31.207
	c3.448-3.448,9.037-3.448,12.485,0c3.446,3.448,3.446,9.039-0.002,12.482l-31.211,31.207
	C85.74,438.742,83.481,439.604,81.222,439.604z"/>
<g>
</g>
<g>
</g>
<g>
</g>
<g>
</g>
<g>
</g>
<g>
</g>
<g>
</g>
<g>
</g>
<g>
</g>
<g>
</g>
<g>
</g>
<g>
</g>
<g>
</g>
<g>
</g>
<g>
</g>
</svg>
