<?xml version="1.0" encoding="iso-8859-1"?>
<!-- Generator: Adobe Illustrator 19.0.0, SVG Export Plug-In . SVG Version: 6.00 Build 0)  -->
<svg xmlns="http://www.w3.org/2000/svg" xmlns:xlink="http://www.w3.org/1999/xlink" version="1.1" id="Capa_1" x="0px" y="0px" viewBox="0 0 512.007 512.007" style="enable-background:new 0 0 512.007 512.007;" xml:space="preserve" width="512px" height="512px">
<g>
	<g>
		<path d="M453.03,271.898c-3.255-3.418-8.648-3.546-12.062-0.303c-3.413,3.247-3.554,8.648-0.303,12.062    c18.662,19.627,28.126,41.907,28.126,66.214c0,92.189-68.339,145.065-187.497,145.065c-118.241,0-255.682-70.826-255.682-162.132    c0-93.746,0-136.532,119.312-136.532c69.179,0,144.75,12.16,202.157,32.525c4.459,1.583,9.323-0.747,10.897-5.188    c1.574-4.442-0.747-9.318-5.188-10.893c-59.144-20.979-136.848-33.506-207.866-33.506c-136.379,0-136.379,61.107-136.379,153.599    c0,102.561,143.999,179.198,272.749,179.198c128.093,0,204.568-60.612,204.559-162.141    C485.854,321.036,474.807,294.797,453.03,271.898z" fill="#2d3039"/>
	</g>
</g>
<g>
	<g>
		<path d="M488.507,198.507c-9.664-9.668-22.511-14.997-36.177-14.997h-0.004c-3.447,0-6.839,0.341-10.142,1.003    c3.251-16.243-1.399-33.775-13.948-46.344c-9.664-9.668-22.511-14.997-36.177-14.997h-0.004    c-13.666,0.004-26.504,5.329-36.164,15.002c-19.942,19.964-19.938,52.441,0,72.4l-53.627,53.696    c-1.873,1.877-2.765,4.514-2.423,7.142c0.346,2.628,1.89,4.945,4.186,6.272c18.726,10.846,38.451,19.183,58.619,24.781    l21.875,6.071c0.755,0.213,1.519,0.311,2.283,0.311c2.231,0,4.416-0.883,6.046-2.509l29.854-29.888    c8.593,6.144,18.859,9.455,29.632,9.455c13.666,0,26.509-5.325,36.172-15.001C508.445,250.944,508.445,218.467,488.507,198.507z     M476.42,258.846c-6.434,6.443-14.997,9.992-24.094,9.992c-9.096,0-17.655-3.55-24.094-9.992c-1.6-1.604-3.772-2.505-6.037-2.505    c-2.266,0-4.437,0.9-6.037,2.505l-31.872,31.91l-17.075-4.736c-15.3-4.25-30.344-10.193-44.847-17.728l52.232-52.292    c1.809-1.813,2.709-4.339,2.453-6.886c-0.26-2.547-1.643-4.843-3.78-6.259c-1.911-1.271-3.699-2.731-5.308-4.343    c-13.295-13.308-13.295-34.961,0-48.277c6.434-6.443,14.989-9.992,24.089-9.992c0.004,0,0.004,0,0.004,0    c9.101,0,17.66,3.55,24.098,9.992c13.291,13.308,13.291,34.965,0,48.277c-1.668,1.668-2.496,3.853-2.496,6.037    s0.836,4.369,2.505,6.033c3.332,3.332,8.734,3.324,12.066-0.009c6.434-6.443,14.989-9.992,24.089-9.992c0.004,0,0.004,0,0.004,0    c9.101,0,17.66,3.55,24.098,9.992C489.711,223.881,489.711,245.534,476.42,258.846z" fill="#2d3039"/>
	</g>
</g>
<g>
	<g>
		<path d="M264.249,264.542c-86.032,0-153.424,37.482-153.424,85.333c0,4.71,3.823,8.533,8.533,8.533    c4.71,0,8.533-3.823,8.533-8.533c0-37.005,62.442-68.266,136.357-68.266c73.911,0,136.357,31.262,136.357,68.266    c0,37.004-62.446,68.266-136.357,68.266c-4.71,0-8.533,3.823-8.533,8.533c0,4.71,3.823,8.533,8.533,8.533    c86.032,0,153.424-37.482,153.424-85.333S350.281,264.542,264.249,264.542z" fill="#2d3039"/>
	</g>
</g>
<g>
	<g>
		<path d="M276.592,308.113c-37.482-18.76-90.628,7.407-92.872,8.533c-4.211,2.108-5.914,7.228-3.81,11.443    c1.493,2.991,4.51,4.719,7.642,4.719c1.28,0,2.581-0.294,3.802-0.896c0.478-0.235,47.782-23.462,77.597-8.538    c4.224,2.121,9.344,0.401,11.452-3.81C282.515,315.345,280.804,310.22,276.592,308.113z" fill="#2d3039"/>
	</g>
</g>
<g>
	<g>
		<path d="M220.422,4.145c-2.423-4.045-7.667-5.355-11.708-2.923c-2.863,1.719-28.126,17.429-32.938,38.835    c-1.916,8.512-0.303,16.951,4.663,24.409l3.452,5.146c6.703,9.95,11.998,17.805,11.161,22.046    c-0.606,3.063-4.723,7.164-12.249,12.185c-3.917,2.615-4.975,7.915-2.359,11.836c1.647,2.466,4.352,3.797,7.108,3.797    c1.626,0,3.273-0.465,4.727-1.438c12.083-8.064,17.92-14.972,19.52-23.083c2.206-11.196-4.489-21.128-13.756-34.88l-3.401-5.064    c-2.411-3.627-3.115-7.177-2.223-11.183c2.714-12.151,19.033-24.316,25.092-27.981C221.544,13.417,222.846,8.181,220.422,4.145z" fill="#2d3039"/>
	</g>
</g>
<g>
	<g>
		<path d="M263.033,29.749c-2.423-4.041-7.671-5.35-11.708-2.923c-2.867,1.719-28.13,17.429-32.943,38.835    c-1.916,8.512-0.303,16.951,4.663,24.409l3.456,5.146c6.703,9.946,11.998,17.8,11.161,22.041    c-0.606,3.063-4.723,7.164-12.249,12.185c-3.917,2.615-4.975,7.915-2.359,11.836c1.647,2.466,4.352,3.797,7.108,3.797    c1.63,0,3.273-0.465,4.723-1.429c12.083-8.064,17.92-14.967,19.52-23.082c2.206-11.196-4.493-21.133-13.756-34.88l-3.401-5.069    c-2.411-3.622-3.115-7.176-2.223-11.183c2.714-12.147,19.038-24.316,25.096-27.981C264.155,39.021,265.457,33.785,263.033,29.749z    " fill="#2d3039"/>
	</g>
</g>
<g>
</g>
<g>
</g>
<g>
</g>
<g>
</g>
<g>
</g>
<g>
</g>
<g>
</g>
<g>
</g>
<g>
</g>
<g>
</g>
<g>
</g>
<g>
</g>
<g>
</g>
<g>
</g>
<g>
</g>
</svg>
