<?xml version="1.0" encoding="iso-8859-1"?>
<!-- Generator: Adobe Illustrator 19.0.0, SVG Export Plug-In . SVG Version: 6.00 Build 0)  -->
<svg version="1.1" id="Capa_1" xmlns="http://www.w3.org/2000/svg" xmlns:xlink="http://www.w3.org/1999/xlink" x="0px" y="0px"
	 viewBox="0 0 512.007 512.007" style="enable-background:new 0 0 512.007 512.007;" xml:space="preserve">
<path style="fill:#99783D;" d="M477.325,349.875c0-119.466-205.306-162.132-332.4-162.132S17.079,238.554,17.079,332.808
	S154.2,503.473,281.294,503.473S477.325,444.129,477.325,349.875z"/>
<path d="M281.294,512.007c-128.75,0-272.749-76.637-272.749-179.198c0-92.492,0-153.599,136.379-153.599
	c137.044,0,340.934,45.452,340.934,170.665C485.862,451.395,409.387,512.007,281.294,512.007z M144.924,196.276
	c-119.312,0-119.312,42.786-119.312,136.532c0,91.306,137.441,162.132,255.682,162.132c119.158,0,187.497-52.876,187.497-145.065
	C468.796,237.974,270.141,196.276,144.924,196.276z"/>
<path style="fill:#DDDDDD;" d="M482.457,204.545c-16.644-16.661-43.626-16.661-60.266,0c16.64-16.661,16.644-43.678,0-60.339
	s-43.626-16.661-60.266,0c-16.64,16.661-16.644,43.677,0,60.339c2.065,2.065,4.292,3.87,6.635,5.423l-60.262,60.334
	c17.813,10.312,36.723,18.415,56.627,23.94l21.875,6.071l35.392-35.434c16.644,16.661,43.626,16.661,60.266,0
	C499.102,248.218,499.102,221.206,482.457,204.545z"/>
<path d="M386.804,308.847c-0.764,0-1.527-0.098-2.283-0.311l-21.875-6.071c-20.168-5.598-39.893-13.935-58.619-24.781
	c-2.295-1.327-3.84-3.644-4.186-6.272c-0.341-2.628,0.55-5.265,2.423-7.142l53.627-53.696l0,0c-19.938-19.959-19.942-52.437,0-72.4
	c9.66-9.672,22.498-14.997,36.164-15.001h0.004c13.666,0,26.513,5.329,36.177,14.997c12.548,12.569,17.199,30.101,13.948,46.344
	c3.302-0.661,6.694-1.003,10.142-1.003h0.004c13.666,0,26.513,5.329,36.177,14.997l0,0c19.938,19.959,19.938,52.437,0,72.396
	c-9.664,9.677-22.506,15.001-36.172,15.001c-10.773,0-21.039-3.311-29.632-9.455l-29.854,29.888
	C391.22,307.963,389.035,308.847,386.804,308.847z M322.365,268.292c14.502,7.535,29.546,13.478,44.847,17.728l17.075,4.736
	l31.872-31.91c1.6-1.604,3.772-2.505,6.037-2.505l0,0c2.266,0,4.437,0.9,6.037,2.505c6.438,6.443,14.997,9.992,24.094,9.992
	s17.66-3.55,24.094-9.992c13.291-13.312,13.291-34.965,0-48.273c-6.438-6.443-14.997-9.992-24.098-9.992c0,0,0,0-0.004,0
	c-9.101,0-17.655,3.55-24.089,9.992c-3.332,3.332-8.734,3.341-12.066,0.009c-1.668-1.664-2.505-3.849-2.505-6.033
	c0-2.185,0.828-4.369,2.496-6.037c13.291-13.312,13.291-34.969,0-48.277c-6.438-6.443-14.997-9.992-24.098-9.992c0,0,0,0-0.004,0
	c-9.101,0-17.655,3.55-24.089,9.992c-13.295,13.316-13.295,34.969,0,48.277c1.609,1.613,3.396,3.072,5.308,4.343
	c2.138,1.417,3.52,3.712,3.78,6.259c0.256,2.547-0.644,5.073-2.453,6.886L322.365,268.292z"/>
<path style="fill:#99783D;" d="M264.249,426.674c80.021,0,144.891-34.385,144.891-76.799s-64.87-76.799-144.891-76.799
	s-144.895,34.385-144.895,76.799"/>
<path d="M264.249,435.207c-4.71,0-8.533-3.823-8.533-8.533c0-4.71,3.823-8.533,8.533-8.533c73.911,0,136.357-31.262,136.357-68.266
	s-62.446-68.266-136.357-68.266c-73.915,0-136.357,31.262-136.357,68.266c0,4.71-3.823,8.533-8.533,8.533s-8.533-3.823-8.533-8.533
	c0-47.85,67.391-85.333,153.424-85.333s153.424,37.482,153.424,85.333S350.281,435.207,264.249,435.207z"/>
<path d="M187.552,332.808c-3.132,0-6.148-1.728-7.642-4.719c-2.103-4.215-0.401-9.335,3.81-11.443
	c2.249-1.126,55.385-27.294,92.872-8.533c4.211,2.108,5.922,7.232,3.81,11.452c-2.108,4.211-7.223,5.931-11.452,3.81
	c-29.819-14.925-77.119,8.303-77.597,8.538C190.133,332.514,188.832,332.808,187.552,332.808z"/>
<path d="M187.552,119.476c-2.756,0-5.461-1.331-7.108-3.797c-2.615-3.921-1.557-9.22,2.359-11.836
	c7.526-5.022,11.644-9.122,12.249-12.186c0.836-4.241-4.459-12.096-11.162-22.046l-3.452-5.146
	c-4.966-7.458-6.579-15.897-4.663-24.409c4.813-21.406,30.075-37.115,32.938-38.835c4.036-2.432,9.28-1.122,11.708,2.923
	c2.423,4.036,1.122,9.271-2.91,11.703l0,0c-6.059,3.665-22.378,15.829-25.092,27.981c-0.892,4.006-0.188,7.556,2.223,11.183
	l3.4,5.064c9.267,13.751,15.961,23.684,13.756,34.88c-1.6,8.111-7.437,15.019-19.52,23.082
	C190.825,119.011,189.178,119.476,187.552,119.476z"/>
<path d="M230.163,145.076c-2.756,0-5.461-1.331-7.108-3.797c-2.615-3.921-1.557-9.22,2.359-11.836
	c7.526-5.022,11.644-9.122,12.249-12.186c0.836-4.241-4.459-12.096-11.162-22.041l-3.456-5.146
	c-4.966-7.458-6.579-15.897-4.663-24.409c4.813-21.406,30.075-37.115,32.943-38.835c4.036-2.428,9.284-1.118,11.708,2.923
	c2.423,4.036,1.122,9.271-2.91,11.703l0,0c-6.063,3.665-22.383,15.833-25.096,27.981c-0.892,4.006-0.188,7.56,2.223,11.183
	l3.401,5.069c9.263,13.747,15.961,23.684,13.756,34.88c-1.6,8.115-7.437,15.019-19.52,23.082
	C233.436,144.611,231.793,145.076,230.163,145.076z"/>
<g>
</g>
<g>
</g>
<g>
</g>
<g>
</g>
<g>
</g>
<g>
</g>
<g>
</g>
<g>
</g>
<g>
</g>
<g>
</g>
<g>
</g>
<g>
</g>
<g>
</g>
<g>
</g>
<g>
</g>
</svg>
