<?xml version="1.0" encoding="iso-8859-1"?>
<!-- Generator: Adobe Illustrator 19.0.0, SVG Export Plug-In . SVG Version: 6.00 Build 0)  -->
<svg xmlns="http://www.w3.org/2000/svg" xmlns:xlink="http://www.w3.org/1999/xlink" version="1.1" id="Capa_1" x="0px" y="0px" viewBox="0 0 512 512" style="enable-background:new 0 0 512 512;" xml:space="preserve" width="512px" height="512px">
<g>
	<g>
		<path d="M247.058,128.342L87.707,10.925c-2.779-2.043-6.473-2.354-9.545-0.8c-3.077,1.554-5.019,4.713-5.019,8.16v44.951    c0,5.047,4.096,9.143,9.143,9.143s9.143-4.096,9.143-9.143V36.379L236.21,143.062c1.632,1.207,3.534,1.783,5.417,1.783    c2.807,0,5.577-1.289,7.365-3.721C251.991,137.06,251.122,131.336,247.058,128.342z" fill="#2d3039"/>
	</g>
</g>
<g>
	<g>
		<path d="M242.194,125.147L40.215,37.329c-2.821-1.234-6.08-0.955-8.658,0.741c-2.574,1.687-4.128,4.562-4.128,7.643v57.143    c0,5.047,4.096,9.143,9.143,9.143c5.047,0,9.143-4.096,9.143-9.143v-43.2l189.193,82.254c1.184,0.521,2.423,0.763,3.639,0.763    c3.529,0,6.894-2.053,8.389-5.499C248.946,132.548,246.825,127.158,242.194,125.147z" fill="#2d3039"/>
	</g>
</g>
<g>
	<g>
		<path d="M433.838,10.125c-3.081-1.554-6.775-1.243-9.55,0.8L270.729,124.081c-4.064,2.99-4.933,8.718-1.938,12.782    c1.792,2.432,4.562,3.717,7.369,3.717c1.883,0,3.781-0.581,5.417-1.783L420.571,36.379v26.857c0,5.047,4.096,9.143,9.143,9.143    c5.047,0,9.143-4.096,9.143-9.143V18.285C438.857,14.838,436.914,11.679,433.838,10.125z" fill="#2d3039"/>
	</g>
</g>
<g>
	<g>
		<path d="M480.443,38.07c-2.578-1.696-5.833-1.975-8.663-0.741l-195.259,84.896c-4.631,2.011-6.747,7.397-4.736,12.027    c1.495,3.442,4.859,5.499,8.389,5.499c1.221,0,2.455-0.242,3.643-0.759l182.469-79.337v44.722c0,5.047,4.096,9.143,9.143,9.143    s9.143-4.096,9.143-9.143V45.713C484.571,42.632,483.017,39.757,480.443,38.07z" fill="#2d3039"/>
	</g>
</g>
<g>
	<g>
		<path d="M257.339,128.1L10.482,91.528c-2.624-0.375-5.303,0.384-7.314,2.121C1.157,95.387,0,97.91,0,100.571v356.571    c0,4.53,3.319,8.379,7.803,9.047l246.857,36.571c0.448,0.064,0.891,0.096,1.339,0.096c2.181,0,4.302-0.777,5.975-2.217    c2.011-1.737,3.168-4.265,3.168-6.926V137.142C265.143,132.612,261.819,128.763,257.339,128.1z M246.857,483.112L18.286,449.252    V111.167l228.571,33.865V483.112z" fill="#2d3039"/>
	</g>
</g>
<g>
	<g>
		<path d="M508.837,93.645c-2.021-1.737-4.69-2.501-7.314-2.121l-246.857,36.571c-4.997,0.741-8.448,5.39-7.707,10.382    c0.741,4.997,5.358,8.457,10.382,7.707l236.375-35.017v338.085l-239.049,35.419c-4.997,0.741-8.448,5.385-7.707,10.382    c0.672,4.539,4.576,7.803,9.033,7.803c0.443,0,0.891-0.032,1.349-0.096l246.857-36.571c4.48-0.667,7.803-4.517,7.803-9.047    V100.571C512,97.915,510.843,95.387,508.837,93.645z" fill="#2d3039"/>
	</g>
</g>
<g>
	<g>
		<path d="M463.017,312.996c-2.066-1.737-4.777-2.473-7.465-2.002l-155.429,27.429c-4.37,0.773-7.552,4.567-7.552,9.006v73.143    c0,2.702,1.198,5.266,3.269,7.003c1.655,1.394,3.739,2.139,5.874,2.139c0.526,0,1.056-0.046,1.591-0.137l155.429-27.429    c4.37-0.773,7.552-4.567,7.552-9.006v-73.143C466.286,317.297,465.088,314.733,463.017,312.996z M448,385.471l-137.143,24.201    v-54.574L448,330.897V385.471z" fill="#2d3039"/>
	</g>
</g>
<g>
</g>
<g>
</g>
<g>
</g>
<g>
</g>
<g>
</g>
<g>
</g>
<g>
</g>
<g>
</g>
<g>
</g>
<g>
</g>
<g>
</g>
<g>
</g>
<g>
</g>
<g>
</g>
<g>
</g>
</svg>
