<?xml version="1.0" encoding="iso-8859-1"?>
<!-- Generator: Adobe Illustrator 19.0.0, SVG Export Plug-In . SVG Version: 6.00 Build 0)  -->
<svg version="1.1" id="Capa_1" xmlns="http://www.w3.org/2000/svg" xmlns:xlink="http://www.w3.org/1999/xlink" x="0px" y="0px"
	 viewBox="0 0 512.005 512.005" style="enable-background:new 0 0 512.005 512.005;" xml:space="preserve">
<polygon style="fill:#777777;" points="485.52,503.177 26.485,503.177 26.485,256.005 256.002,88.28 485.52,256.005 "/>
<path d="M494.347,512.005H17.657v-260.48L256.002,77.352l238.345,174.173V512.005z M35.313,494.349h441.379v-233.86L256.002,99.213
	L35.313,260.489V494.349z"/>
<polygon style="fill:#FFFFFF;" points="432.554,88.28 432.554,406.074 79.451,406.074 79.451,8.832 351.336,8.832 "/>
<path d="M441.382,414.901H70.623V0.005h284.31l86.449,84.564V414.901z M88.278,397.246h335.448V91.997L347.734,17.66H88.278V397.246
	z"/>
<polygon style="fill:#DDDDDD;" points="485.52,503.177 26.485,503.177 26.485,256.005 256.002,388.418 485.52,256.005 "/>
<path d="M485.52,512.005H26.485c-4.873,0-8.828-3.955-8.828-8.828V256.005c0-3.151,1.682-6.069,4.414-7.645
	c2.732-1.576,6.095-1.576,8.828,0l225.103,129.871L481.11,248.36c2.728-1.571,6.095-1.571,8.823,0
	c2.732,1.576,4.414,4.493,4.414,7.645v247.172C494.347,508.054,490.397,512.005,485.52,512.005z M35.313,494.349h441.379V271.29
	l-216.28,124.778c-2.728,1.576-6.087,1.576-8.823,0L35.313,271.29V494.349z"/>
<polygon style="fill:#FFFFFF;" points="256.002,317.798 26.485,503.177 485.52,503.177 "/>
<path d="M485.52,512.005H26.485c-3.743,0-7.075-2.357-8.324-5.888c-1.245-3.527-0.132-7.455,2.776-9.807L250.454,310.93
	c3.235-2.617,7.852-2.617,11.096,0l229.517,185.379c2.909,2.348,4.021,6.281,2.776,9.807
	C492.599,509.648,489.262,512.005,485.52,512.005z M51.463,494.349h409.079L256.002,329.15L51.463,494.349z"/>
<polygon style="fill:#DDDDDD;" points="353.106,8.832 353.106,88.28 432.554,88.28 "/>
<path d="M432.554,97.108h-79.448c-4.873,0-8.828-3.955-8.828-8.828V8.832c0-3.571,2.15-6.788,5.447-8.157
	c3.302-1.373,7.093-0.614,9.622,1.916l79.448,79.448c2.525,2.525,3.279,6.321,1.916,9.618
	C439.342,94.959,436.125,97.108,432.554,97.108z M361.933,79.453h49.311l-49.311-49.306V79.453z"/>
<path style="fill:#F97DA3;" d="M200.936,176.437c-16.026-19.394-4.943-50.11,20.083-52.652c1.245-0.128,2.503-0.19,3.783-0.19
	c12.866,0,24.192,6.581,30.813,16.552c6.625-9.971,17.946-16.552,30.813-16.552c1.276,0,2.538,0.066,3.783,0.19
	c25.031,2.542,36.109,33.258,20.083,52.652l-54.678,66.18L200.936,176.437z"/>
<path d="M255.614,251.445c-2.635,0-5.129-1.174-6.806-3.204l-54.678-66.176c-9.816-11.878-12.239-28.204-6.329-42.606
	c5.676-13.828,17.761-22.969,32.327-24.452c1.532-0.159,3.09-0.234,4.674-0.234c11.551,0,22.479,4.326,30.813,11.922
	c8.333-7.596,19.262-11.922,30.808-11.922c1.567,0,3.121,0.084,4.652,0.234c14.592,1.483,26.673,10.62,32.349,24.452
	c5.914,14.402,3.487,30.729-6.329,42.611l-54.674,66.172C260.743,250.271,258.249,251.445,255.614,251.445z M224.801,132.423
	c-0.975,0-1.933,0.049-2.882,0.146c-8.095,0.821-14.574,5.778-17.783,13.59c-3.434,8.364-2.052,17.814,3.606,24.655l0,0
	l47.872,57.94l47.872-57.935c5.658-6.846,7.04-16.296,3.606-24.66c-3.209-7.817-9.684-12.769-17.774-13.59
	c-0.936-0.093-1.911-0.146-2.891-0.146c-9.446,0-18.211,4.714-23.455,12.61c-1.638,2.463-4.396,3.942-7.353,3.942l0,0
	c-2.957,0-5.716-1.479-7.353-3.946C243.017,137.137,234.251,132.423,224.801,132.423z"/>
<g>
</g>
<g>
</g>
<g>
</g>
<g>
</g>
<g>
</g>
<g>
</g>
<g>
</g>
<g>
</g>
<g>
</g>
<g>
</g>
<g>
</g>
<g>
</g>
<g>
</g>
<g>
</g>
<g>
</g>
</svg>
