<?xml version="1.0" encoding="iso-8859-1"?>
<!-- Generator: Adobe Illustrator 19.0.0, SVG Export Plug-In . SVG Version: 6.00 Build 0)  -->
<svg xmlns="http://www.w3.org/2000/svg" xmlns:xlink="http://www.w3.org/1999/xlink" version="1.1" id="Capa_1" x="0px" y="0px" viewBox="0 0 512.005 512.005" style="enable-background:new 0 0 512.005 512.005;" xml:space="preserve" width="512px" height="512px">
<g>
	<g>
		<polygon points="441.876,213.182 431.459,227.434 476.692,260.489 476.692,494.349 35.313,494.349 35.313,260.489 81.728,226.569     71.312,212.317 17.657,251.525 17.657,512.005 494.347,512.005 494.347,251.525   " fill="#2d3039"/>
	</g>
</g>
<g>
	<g>
		<polygon points="354.933,0.005 70.623,0.005 70.623,285.674 88.278,285.674 88.278,17.66 347.734,17.66 423.726,91.997     423.726,286.61 441.382,286.61 441.382,84.568   " fill="#2d3039"/>
	</g>
</g>
<g>
	<g>
		<path d="M489.933,248.36c-2.728-1.571-6.095-1.571-8.823,0L305.635,349.595c-4.224,2.432-5.672,7.835-3.235,12.054    c2.432,4.224,7.83,5.672,12.054,3.235l162.238-93.594v223.06H35.313V271.29l163.266,94.186c4.224,2.432,9.618,0.989,12.058-3.235    c2.436-4.22,0.989-9.618-3.235-12.054L30.899,248.36c-2.732-1.576-6.095-1.576-8.828,0c-2.732,1.576-4.414,4.493-4.414,7.645    v247.172c0,4.873,3.955,8.828,8.828,8.828H485.52c4.877,0,8.828-3.95,8.828-8.828V256.005    C494.347,252.853,492.665,249.936,489.933,248.36z" fill="#2d3039"/>
	</g>
</g>
<g>
	<g>
		<path d="M491.068,496.309L261.55,310.93c-3.24-2.613-7.861-2.613-11.096,0L20.937,496.309c-2.909,2.353-4.021,6.281-2.776,9.807    c1.249,3.531,4.582,5.888,8.324,5.888H485.52c3.743,0,7.08-2.357,8.324-5.888C495.089,502.59,493.976,498.657,491.068,496.309z     M51.463,494.349l204.54-165.199l204.54,165.199H51.463z" fill="#2d3039"/>
	</g>
</g>
<g>
	<g>
		<path d="M438.795,82.039L359.347,2.591c-2.534-2.529-6.316-3.288-9.622-1.916c-3.297,1.368-5.447,4.586-5.447,8.157V88.28    c0,4.873,3.955,8.828,8.828,8.828h79.448c3.571,0,6.788-2.15,8.157-5.451C442.075,88.36,441.32,84.564,438.795,82.039z     M361.933,79.453V30.146l49.311,49.307H361.933z" fill="#2d3039"/>
	</g>
</g>
<g>
	<g>
		<path d="M323.423,139.458c-5.676-13.833-17.757-22.969-32.349-24.452c-1.532-0.15-3.085-0.234-4.652-0.234    c-11.547,0-22.475,4.326-30.808,11.922c-8.333-7.596-19.262-11.922-30.813-11.922c-1.585,0-3.143,0.075-4.674,0.234    c-14.566,1.483-26.651,10.624-32.327,24.452c-5.91,14.402-3.487,30.729,6.329,42.606l54.678,66.176    c1.677,2.03,4.171,3.204,6.806,3.204c2.635,0,5.129-1.174,6.806-3.204l54.674-66.172    C326.91,170.187,329.337,153.861,323.423,139.458z M303.486,170.818l-47.872,57.935l-47.872-57.94    c-5.659-6.841-7.04-16.291-3.606-24.655c3.209-7.812,9.688-12.769,17.783-13.59c0.949-0.097,1.907-0.146,2.882-0.146    c9.45,0,18.216,4.714,23.464,12.606c1.638,2.467,4.396,3.946,7.353,3.946c2.957,0,5.716-1.479,7.353-3.942    c5.244-7.896,14.009-12.61,23.455-12.61c0.98,0,1.955,0.053,2.891,0.146c8.091,0.821,14.566,5.773,17.774,13.59    C310.526,154.523,309.144,163.973,303.486,170.818z" fill="#2d3039"/>
	</g>
</g>
<g>
</g>
<g>
</g>
<g>
</g>
<g>
</g>
<g>
</g>
<g>
</g>
<g>
</g>
<g>
</g>
<g>
</g>
<g>
</g>
<g>
</g>
<g>
</g>
<g>
</g>
<g>
</g>
<g>
</g>
</svg>
