<?xml version="1.0" encoding="iso-8859-1"?>
<!-- Generator: Adobe Illustrator 19.0.0, SVG Export Plug-In . SVG Version: 6.00 Build 0)  -->
<svg xmlns="http://www.w3.org/2000/svg" xmlns:xlink="http://www.w3.org/1999/xlink" version="1.1" id="Capa_1" x="0px" y="0px" viewBox="0 0 512 512" style="enable-background:new 0 0 512 512;" xml:space="preserve" width="512px" height="512px">
<g>
	<g>
		<path d="M503.172,463.45H8.828c-4.873,0-8.828,3.955-8.828,8.828v26.483c0,4.873,3.955,8.828,8.828,8.828h494.345    c4.873,0,8.828-3.95,8.828-8.828v-26.483C512,467.405,508.045,463.45,503.172,463.45z M494.345,489.933H17.655v-8.828h476.69    V489.933z" fill="#2d3039"/>
	</g>
</g>
<g>
	<g>
		<path d="M411.357,83.864h-28.231c-21.425,0-38.85,17.43-38.85,38.85v275.407c0,21.42,17.426,38.846,38.85,38.846h28.231    c21.425,0,38.85-17.426,38.85-38.85V122.714C450.207,101.289,432.781,83.864,411.357,83.864z M432.552,398.121    c0,11.683-9.507,21.191-21.195,21.191h-28.231c-11.688,0-21.195-9.507-21.195-21.195V122.714c0-11.683,9.507-21.195,21.195-21.195    h28.231c11.688,0,21.195,9.512,21.195,21.195V398.121z" fill="#2d3039"/>
	</g>
</g>
<g>
	<g>
		<path d="M273.439,163.316h-34.882c-19.588,0-35.522,15.934-35.522,35.522v202.606c0,19.588,15.934,35.522,35.522,35.522h34.882    c19.588,0,35.522-15.934,35.522-35.522V198.839C308.961,179.25,293.027,163.316,273.439,163.316z M291.306,401.445    c0,9.856-8.015,17.867-17.867,17.867h-34.882c-9.852,0-17.867-8.011-17.867-17.867V198.839c0-9.852,8.016-17.867,17.867-17.867    h34.882c9.856,0,17.867,8.016,17.867,17.867V401.445z" fill="#2d3039"/>
	</g>
</g>
<g>
	<g>
		<path d="M136.47,251.588H93.052c-17.236,0-31.258,14.023-31.258,31.258v122.862c0,17.24,14.023,31.258,31.258,31.258h43.419    c17.236,0,31.258-14.018,31.258-31.258V282.846C167.729,265.611,153.706,251.588,136.47,251.588z M150.073,405.709    c0,7.499-6.104,13.603-13.603,13.603H93.052c-7.499,0-13.603-6.1-13.603-13.603V282.846c0-7.499,6.104-13.603,13.603-13.603    h43.419c7.499,0,13.603,6.104,13.603,13.603V405.709z" fill="#2d3039"/>
	</g>
</g>
<g>
	<g>
		<path d="M263.539,80.5c-3.231-3.655-8.81-4.003-12.46-0.772C156.831,162.963,26.646,180.87,25.344,181.042    c-4.838,0.631-8.241,5.063-7.609,9.896c0.578,4.449,4.374,7.684,8.739,7.684c0.375,0,0.764-0.022,1.152-0.071    c5.535-0.724,136.735-18.688,235.14-105.591C266.417,89.734,266.765,84.155,263.539,80.5z" fill="#2d3039"/>
	</g>
</g>
<g>
	<g>
		<path d="M332.857,7.002c-2.595-2.604-6.55-3.324-9.891-1.796l-97.103,44.138c-2.635,1.201-4.515,3.61-5.032,6.462    s0.397,5.769,2.445,7.817l52.966,52.966c1.668,1.668,3.924,2.586,6.241,2.586c0.521,0,1.05-0.044,1.567-0.141    c2.851-0.516,5.266-2.397,6.462-5.032l44.138-97.103C336.177,13.548,335.461,9.602,332.857,7.002z M279.715,95.097l-34.948-34.948    l64.079-29.127L279.715,95.097z" fill="#2d3039"/>
	</g>
</g>
<g>
</g>
<g>
</g>
<g>
</g>
<g>
</g>
<g>
</g>
<g>
</g>
<g>
</g>
<g>
</g>
<g>
</g>
<g>
</g>
<g>
</g>
<g>
</g>
<g>
</g>
<g>
</g>
<g>
</g>
</svg>
