<?xml version="1.0" encoding="iso-8859-1"?>
<!-- Generator: Adobe Illustrator 19.0.0, SVG Export Plug-In . SVG Version: 6.00 Build 0)  -->
<svg version="1.1" id="Capa_1" xmlns="http://www.w3.org/2000/svg" xmlns:xlink="http://www.w3.org/1999/xlink" x="0px" y="0px"
	 viewBox="0 0 512 512" style="enable-background:new 0 0 512 512;" xml:space="preserve">
<rect x="8.828" y="472.281" style="fill:#FBAD4A;" width="494.347" height="26.483"/>
<path d="M503.172,507.587H8.828c-4.875,0-8.828-3.953-8.828-8.828v-26.483c0-4.875,3.953-8.828,8.828-8.828h494.345
	c4.875,0,8.828,3.953,8.828,8.828v26.483C512,503.634,508.047,507.587,503.172,507.587z M17.655,489.932h476.689v-8.828H17.655
	V489.932z"/>
<path style="fill:#FBAD4A;" d="M383.125,428.139h28.23c16.583,0,30.022-13.44,30.022-30.022V122.713
	c0-16.583-13.44-30.022-30.022-30.022h-28.23c-16.583,0-30.022,13.44-30.022,30.022v275.402
	C353.103,414.699,366.544,428.139,383.125,428.139z"/>
<path d="M411.358,436.967h-28.232c-21.422,0-38.849-17.427-38.849-38.849V122.712c0-21.422,17.427-38.849,38.849-38.849h28.232
	c21.422,0,38.849,17.427,38.849,38.849v275.405C450.206,419.54,432.78,436.967,411.358,436.967z M383.124,101.518
	c-11.685,0-21.194,9.509-21.194,21.194v275.405c0,11.685,9.509,21.194,21.194,21.194h28.232c11.685,0,21.194-9.509,21.194-21.194
	V122.712c0-11.685-9.509-21.194-21.194-21.194H383.124z"/>
<path style="fill:#85D839;" d="M238.556,428.139h34.883c14.742,0,26.695-11.952,26.695-26.695v-202.61
	c0.004-14.742-11.948-26.695-26.69-26.695h-34.883c-14.746,0-26.699,11.952-26.699,26.695V401.44
	C211.862,416.186,223.815,428.139,238.556,428.139z"/>
<path d="M273.439,436.967h-34.884c-19.586,0-35.521-15.935-35.521-35.526V198.833c0-19.586,15.937-35.521,35.526-35.521h34.884
	c9.487,0,18.41,3.696,25.117,10.406c6.711,6.71,10.406,15.631,10.401,25.118v202.609
	C308.96,421.031,293.025,436.967,273.439,436.967z M238.56,180.967c-9.853,0-17.87,8.015-17.87,17.866V401.44
	c0,9.853,8.015,17.871,17.866,17.871h34.884c9.853,0,17.866-8.013,17.866-17.866V198.833c0-4.774-1.858-9.259-5.228-12.634
	c-3.376-3.376-7.862-5.232-12.634-5.232H238.56z"/>
<path style="fill:#2BBBE9;" d="M93.052,428.139h43.419c12.389,0,22.431-10.041,22.431-22.431V282.845
	c-0.004-12.389-10.046-22.431-22.435-22.431H93.047c-12.385,0-22.426,10.041-22.426,22.431v122.867
	C70.62,418.098,80.662,428.139,93.052,428.139z"/>
<path d="M136.47,436.967H93.052c-17.237,0-31.258-14.022-31.258-31.254V282.845c0-17.237,14.022-31.258,31.254-31.258h43.418
	c17.233,0,31.256,14.022,31.263,31.254v122.867C167.728,422.945,153.707,436.967,136.47,436.967z M93.047,269.242
	c-7.497,0-13.6,6.103-13.6,13.603v122.867c0,7.5,6.103,13.6,13.603,13.6h43.418c7.5,0,13.603-6.103,13.603-13.603V282.845
	c-0.002-7.5-6.108-13.603-13.607-13.603H93.047z"/>
<path d="M18.627,206.467c-4.366,0-8.16-3.237-8.741-7.683c-0.631-4.832,2.774-9.262,7.607-9.897
	c1.987-0.263,199.847-27.776,284.847-172.276c2.466-4.203,7.88-5.601,12.082-3.131s5.608,7.882,3.133,12.084
	C228.12,177.602,28.242,205.288,19.78,206.394C19.391,206.443,19.006,206.467,18.627,206.467z"/>
<polygon style="fill:#ED5481;" points="282.483,110.345 326.62,13.242 229.517,57.381 "/>
<path d="M282.483,119.173c-2.319,0-4.574-0.916-6.241-2.587l-52.966-52.965c-2.048-2.047-2.961-4.968-2.444-7.817
	c0.516-2.849,2.396-5.263,5.032-6.461l97.105-44.138c3.341-1.527,7.298-0.804,9.892,1.795c2.603,2.601,3.319,6.545,1.793,9.895
	l-44.138,97.103c-1.198,2.636-3.612,4.517-6.461,5.032C283.534,119.126,283.004,119.173,282.483,119.173z M244.767,60.145
	l34.949,34.951l29.129-64.075L244.767,60.145z"/>
<g>
</g>
<g>
</g>
<g>
</g>
<g>
</g>
<g>
</g>
<g>
</g>
<g>
</g>
<g>
</g>
<g>
</g>
<g>
</g>
<g>
</g>
<g>
</g>
<g>
</g>
<g>
</g>
<g>
</g>
</svg>
